<svg width="24" height="20" viewBox="0 0 24 20" fill="none" xmlns="http://www.w3.org/2000/svg">
<path d="M20.7485 5.30279V0.547092C20.7408 0.362762 20.644 0.194413 20.4904 0.0979247C20.3439 0.00563349 20.1673 -0.0229389 20.0001 0.0186806L9.75492 4.19312H4.69685C3.74327 4.21239 2.87451 4.7582 2.42585 5.61982L1.96134 5.80476C0.785287 6.22201 -0.00246759 7.35747 5.15678e-05 8.63175C-0.00735772 9.90153 0.7843 11.032 1.96134 11.4323L2.271 11.5644C2.50943 12.1964 2.96954 12.7145 3.5613 13.0176L4.92905 18.0903C5.29596 19.4701 6.68594 20.2841 8.03364 19.9084C8.57724 19.7569 9.05587 19.4239 9.39359 18.9622C9.86196 18.2986 10.0136 17.4544 9.80648 16.6636L8.87746 13.1761H9.75487C13.7558 14.8373 15.999 15.7686 20 17.4298L20.1807 17.4827C20.2889 17.4844 20.3956 17.4571 20.4903 17.4034C20.6434 17.3193 20.7416 17.1584 20.7484 16.9807V11.9608C22.5442 11.9608 24 10.4703 23.9999 8.6317C23.9999 6.79321 22.5442 5.30284 20.7485 5.30279ZM2.16781 10.3755C1.47815 10.093 1.04185 9.39102 1.08393 8.63175C1.04185 7.87248 1.47815 7.17051 2.16781 6.88798V10.3755ZM8.5678 18.3017C8.28358 18.6935 7.83147 18.92 7.3549 18.9093C6.67636 18.8881 6.09043 18.4168 5.90974 17.7468L4.69685 13.1761H7.81941L8.80006 16.9278C8.93407 17.3979 8.84837 17.905 8.5678 18.3017ZM9.39364 12.1192H4.69685C3.91413 12.1632 3.24482 11.5492 3.2019 10.7478C3.19997 10.7118 3.19933 10.6758 3.20007 10.6397V6.88798C3.17113 6.01301 3.84048 5.27963 4.69512 5.24995L4.69685 5.2499H9.39364V12.1192ZM19.7162 16.188C16.0881 14.7023 14.054 13.8693 10.4259 12.3835V5.14426L19.7162 1.33968V16.188ZM20.7485 10.9039V6.35962C21.9742 6.35967 22.9678 7.37699 22.9677 8.6319C22.9676 9.88666 21.9741 10.9039 20.7485 10.9039Z" fill="white"/>
</svg>
