<svg width="35" height="26" viewBox="0 0 35 26" fill="none" xmlns="http://www.w3.org/2000/svg">
<path d="M29.1618 24.4537C28.86 24.9165 28.9906 25.5361 29.4532 25.8377C29.9158 26.1393 30.5354 26.0087 30.837 25.5461C33.19 21.9375 34.5572 17.6269 34.5572 12.9999C34.5572 8.37308 33.19 4.06246 30.837 0.453821C30.5354 -0.00881857 29.9158 -0.139319 29.4532 0.162321C28.9906 0.463961 28.86 1.08354 29.1618 1.54616C31.3092 4.83976 32.5572 8.7726 32.5572 12.9999C32.5572 17.2273 31.3092 21.1603 29.1618 24.4537Z" fill="#FFFFFF"/>
<path d="M6.10281 0.162453C6.56543 0.464093 6.69595 1.08365 6.39431 1.54629C4.24683 4.83987 2.99878 8.77273 2.99878 13.0002C2.99878 17.2274 4.24683 21.1604 6.39431 24.454C6.69595 24.9166 6.56543 25.5362 6.10281 25.8378C5.64017 26.1394 5.02061 26.009 4.71895 25.5462C2.36608 21.9376 0.998779 17.627 0.998779 13.0002C0.998779 8.37319 2.36608 4.06257 4.71897 0.453933C5.02061 -0.00868672 5.64017 -0.139207 6.10281 0.162453Z" fill="#FFFFFF"/>
<path d="M25.1864 18.0689C24.8642 18.5175 24.9668 19.1423 25.4154 19.4645C25.864 19.7865 26.4888 19.6839 26.811 19.2353C28.1068 17.4305 28.8702 15.2159 28.8702 12.8261C28.8702 10.4363 28.1068 8.22171 26.811 6.41684C26.4888 5.96822 25.864 5.86566 25.4154 6.18778C24.9668 6.5099 24.8642 7.13469 25.1864 7.58331C26.2462 9.05953 26.8702 10.8685 26.8702 12.8261C26.8702 14.7837 26.2462 16.5927 25.1864 18.0689Z" fill="#FFFFFF"/>
<path d="M10.4535 6.18814C10.9021 6.51026 11.0047 7.13506 10.6826 7.58368C9.62266 9.05998 8.99878 10.8688 8.99878 12.8264C8.99878 14.7842 9.62264 16.593 10.6826 18.0692C11.0047 18.518 10.9021 19.1428 10.4535 19.4648C10.0049 19.787 9.3801 19.6844 9.05798 19.2358C7.76206 17.431 6.99878 15.2164 6.99878 12.8264C6.99878 10.4366 7.76206 8.22208 9.05798 6.4172C9.3801 5.96858 10.0049 5.86602 10.4535 6.18814Z" fill="#FFFFFF"/>
<path fill-rule="evenodd" clip-rule="evenodd" d="M12.9988 12.9998C12.9988 10.2384 15.2374 7.99976 17.9988 7.99976C20.7602 7.99976 22.9987 10.2384 22.9987 12.9998C22.9987 15.7611 20.7602 17.9997 17.9988 17.9997C15.2374 17.9997 12.9988 15.7611 12.9988 12.9998ZM17.9988 9.99977C16.342 9.99977 14.9988 11.343 14.9988 12.9998C14.9988 14.6565 16.342 15.9997 17.9988 15.9997C19.6556 15.9997 20.9988 14.6565 20.9988 12.9998C20.9988 11.343 19.6556 9.99977 17.9988 9.99977Z" fill="#FFFFFF"/>
</svg>
