<svg width="24" height="24" viewBox="0 0 24 24" fill="none" xmlns="http://www.w3.org/2000/svg">
<path d="M23.4826 11.1614L19.6282 9.23442L23.4826 7.30722C24.1721 6.96262 24.1728 5.97531 23.4826 5.63015L12.4193 0.0988774C12.1553 -0.0329591 11.8447 -0.0329591 11.5807 0.0988774L0.517356 5.63015C-0.172086 5.97494 -0.172818 6.96225 0.517356 7.30722L4.37182 9.23442L0.517356 11.1614C-0.172086 11.5062 -0.172818 12.4933 0.517356 12.8385L4.37182 14.7657L0.517356 16.6927C-0.172086 17.0375 -0.172818 18.0246 0.517356 18.3698L11.5807 23.9011C11.8442 24.0327 12.1547 24.0333 12.4193 23.9011L23.4826 18.3698C24.1721 18.025 24.1728 17.0379 23.4826 16.6927L19.6282 14.7657L23.4826 12.8385C24.1721 12.4939 24.1728 11.5066 23.4826 11.1614ZM12 1.98561L20.9668 6.46878L12 10.9518L3.03322 6.46878L12 1.98561ZM20.9668 17.5313L12 22.0143L3.03322 17.5313L6.46835 15.8138L11.5807 18.3698C11.8443 18.5014 12.1547 18.502 12.4193 18.3698L17.5317 15.8138L20.9668 17.5313ZM12 16.483L3.03322 12.0001L6.46835 10.2825L11.5807 12.8385C11.8443 12.9702 12.1547 12.9707 12.4193 12.8385L17.5317 10.2825L20.9668 12.0001L12 16.483Z" fill="white"/>
</svg>
