<svg width="17" height="15" viewBox="0 0 17 15" fill="none" xmlns="http://www.w3.org/2000/svg">
<path d="M11.0638 3.07641C10.104 1.22442 8.0963 0 5.84427 0C2.62186 0 0.000255889 2.46337 0.000255889 5.49123C0.000255889 6.3141 0.187198 7.1028 0.556167 7.83815L0.00991843 10.4195C-0.059612 10.7481 0.247132 11.0385 0.594917 10.9735L3.36016 10.4569C3.73249 10.6238 4.11766 10.7507 4.51343 10.8382C3.6263 6.86749 6.81115 3.14036 11.0638 3.07641Z" fill="#C8C8CB"/>
<path d="M16.4441 11.8555C16.5396 11.6653 16.6225 11.4716 16.6935 11.2746H16.6753C17.9187 7.82556 15.3038 4.20059 11.4433 4.02409C11.4433 4.0239 11.4432 4.02371 11.4432 4.02352C8.12152 3.87887 5.36182 6.39216 5.36182 9.50861C5.36182 12.5339 7.96376 14.9954 11.1641 14.9997C12.0322 14.9986 12.8642 14.8221 13.6401 14.4743C16.6686 15.0401 16.4324 14.9998 16.502 14.9998C16.8167 14.9998 17.0518 14.7273 16.9904 14.4369L16.4441 11.8555Z" fill="#C8C8CB"/>
</svg>
