<svg width="42" height="42" viewBox="0 0 42 42" fill="none" xmlns="http://www.w3.org/2000/svg">
<rect width="42" height="42" rx="10" fill="url(#paint0_linear)"/>
<path d="M26 11H16C13.2386 11 11 13.2386 11 16V26C11 28.7614 13.2386 31 16 31H26C28.7614 31 31 28.7614 31 26V16C31 13.2386 28.7614 11 26 11Z" stroke="white" stroke-linecap="round" stroke-linejoin="round"/>
<path d="M25.0002 20.3703C25.1236 21.2025 24.9815 22.0525 24.594 22.7993C24.2065 23.5461 23.5933 24.1517 22.8418 24.53C22.0903 24.9082 21.2386 25.0399 20.408 24.9062C19.5773 24.7726 18.81 24.3804 18.215 23.7855C17.6201 23.1905 17.2279 22.4232 17.0943 21.5925C16.9606 20.7619 17.0923 19.9102 17.4705 19.1587C17.8488 18.4072 18.4544 17.794 19.2012 17.4065C19.948 17.019 20.7979 16.8769 21.6302 17.0003C22.4791 17.1262 23.265 17.5218 23.8719 18.1286C24.4787 18.7355 24.8743 19.5214 25.0002 20.3703Z" stroke="white" stroke-linecap="round" stroke-linejoin="round"/>
<path d="M26.5 15.5H26.51" stroke="white" stroke-width="2" stroke-linecap="round" stroke-linejoin="round"/>
<defs>
<linearGradient id="paint0_linear" x1="21" y1="0" x2="21" y2="42" gradientUnits="userSpaceOnUse">
<stop stop-color="#6F56ED"/>
<stop offset="1" stop-color="#FF0202" stop-opacity="0.79"/>
</linearGradient>
</defs>
</svg>
