<svg width="42" height="42" viewBox="0 0 42 42" fill="none" xmlns="http://www.w3.org/2000/svg">
<rect width="42" height="42" rx="10" fill="#289BFF"/>
<path d="M13.9715 28.7625V28.5119L13.7707 28.3619C11.1571 26.4096 9.5 23.4338 9.5 20.1105C9.5 14.2857 14.6122 9.5 21 9.5C27.3878 9.5 32.5 14.2857 32.5 20.112C32.5 25.9368 27.3878 30.7225 21 30.7225C19.8487 30.7225 18.7385 30.5653 17.6907 30.2756L17.495 30.2215L17.3169 30.3192L13.9715 32.1552V28.7625Z" stroke="white"/>
<path d="M22.1928 23.9625L19.1373 20.703L13.1748 23.9625L19.7328 16.9995L22.8633 20.259L28.7523 16.9995L22.1928 23.9625Z" fill="white"/>
</svg>
