<svg width="15" height="15" viewBox="0 0 15 15" fill="none" xmlns="http://www.w3.org/2000/svg">
<path d="M13.9655 12.7119H9.56901C9.19937 12.7119 8.8579 12.9057 8.67317 13.2203C8.48826 13.5349 8.48826 13.9226 8.67317 14.2374C8.8579 14.552 9.19941 14.7458 9.56901 14.7458H13.9655C14.3352 14.7458 14.6766 14.552 14.8614 14.2374C15.0461 13.9226 15.0461 13.5349 14.8614 13.2203C14.6766 12.9057 14.3351 12.7119 13.9655 12.7119Z" fill="#1E88E5"/>
<path d="M13.9655 8.64404H9.56901C9.19937 8.64404 8.8579 8.83788 8.67317 9.15265C8.48826 9.46726 8.48826 9.85494 8.67317 10.1695C8.8579 10.4841 9.19941 10.6779 9.56901 10.6779H13.9655C14.3352 10.6779 14.6766 10.4841 14.8614 10.1695C15.0461 9.85492 15.0461 9.46723 14.8614 9.15265C14.6766 8.83787 14.3351 8.64404 13.9655 8.64404Z" fill="#1E88E5"/>
<rect x="0.75" y="0.75" width="13.5" height="5.25" rx="2.25" stroke="#1E88E5" stroke-width="1.5"/>
<rect x="0.75" y="9" width="5.25" height="5.25" rx="2.25" stroke="#1E88E5" stroke-width="1.5"/>
</svg>
