<svg width="42" height="42" viewBox="0 0 42 42" fill="none" xmlns="http://www.w3.org/2000/svg">
<rect x="0.5" y="0.5" width="41" height="41" rx="9.5" fill="#3FB969" stroke="#3FB969"/>
<path d="M30.9999 25.92V28.92C31.0011 29.1985 30.944 29.4741 30.8324 29.7293C30.7209 29.9845 30.5572 30.2136 30.352 30.4018C30.1468 30.5901 29.9045 30.7335 29.6407 30.8227C29.3769 30.9119 29.0973 30.945 28.8199 30.92C25.7428 30.5856 22.7869 29.5341 20.1899 27.85C17.7738 26.3146 15.7253 24.2661 14.1899 21.85C12.4999 19.2412 11.4482 16.271 11.1199 13.18C11.0949 12.9034 11.1278 12.6247 11.2164 12.3616C11.3051 12.0985 11.4475 11.8567 11.6347 11.6516C11.8219 11.4465 12.0497 11.2827 12.3037 11.1705C12.5577 11.0583 12.8323 11.0002 13.1099 11H16.1099C16.5952 10.9952 17.0657 11.1671 17.4337 11.4835C17.8017 11.8 18.042 12.2394 18.1099 12.72C18.2366 13.68 18.4714 14.6227 18.8099 15.53C18.9445 15.8879 18.9736 16.2769 18.8938 16.6509C18.8141 17.0248 18.6288 17.3681 18.3599 17.64L17.0899 18.91C18.5135 21.4135 20.5864 23.4864 23.0899 24.91L24.3599 23.64C24.6318 23.3711 24.9751 23.1858 25.3491 23.1061C25.723 23.0263 26.112 23.0554 26.4699 23.19C27.3772 23.5285 28.3199 23.7634 29.2799 23.89C29.7657 23.9585 30.2093 24.2032 30.5265 24.5775C30.8436 24.9518 31.0121 25.4296 30.9999 25.92Z" stroke="white" stroke-linecap="round" stroke-linejoin="round"/>
</svg>
