<svg width="42" height="42" viewBox="0 0 42 42" fill="none" xmlns="http://www.w3.org/2000/svg">
<rect width="42" height="42" rx="10" fill="#289BFF"/>
<g clip-path="url(#clip0)">
<path d="M30.4562 23.0035C30.5961 22.3426 30.6669 21.6697 30.6669 21C30.6669 18.4179 29.6613 15.9904 27.8356 14.1645C26.0098 12.3387 23.5822 11.3331 21.0002 11.3331C20.3317 11.3331 19.6588 11.4039 18.9968 11.544C18.2493 11.1875 17.4224 11 16.5917 11C13.5084 11 11 13.5084 11 16.5916C11 17.422 11.1875 18.2488 11.544 18.9968C11.4042 19.6575 11.3334 20.3303 11.3334 21C11.3334 23.5821 12.339 26.0096 14.1647 27.8355C15.9904 29.6612 18.4179 30.6667 21.0002 30.6667C21.6686 30.6667 22.3414 30.5958 23.0032 30.456C23.751 30.8125 24.5779 31 25.4086 31C28.4918 31 31 28.4916 31 25.4086C31 24.5782 30.8125 23.7513 30.4562 23.0035ZM25.4086 29.8281C24.6835 29.8281 23.9918 29.6574 23.3524 29.3205C23.2676 29.2758 23.1738 29.2529 23.0793 29.2529C23.0346 29.2529 22.9897 29.2581 22.9456 29.2684C22.304 29.4187 21.6496 29.4949 21.0002 29.4949C16.316 29.4949 12.5053 25.6841 12.5053 21C12.5053 20.3494 12.5814 19.6949 12.7317 19.0548C12.7639 18.9173 12.7455 18.7728 12.6797 18.6479C12.3426 18.0081 12.1719 17.3162 12.1719 16.5916C12.1719 14.1546 14.1546 12.1719 16.5917 12.1719C17.3168 12.1719 18.0084 12.3426 18.6474 12.6794C18.7724 12.7453 18.9169 12.7638 19.0544 12.7316C19.6961 12.5813 20.3507 12.505 21.0002 12.505C25.6843 12.505 29.495 16.3159 29.495 21C29.495 21.6506 29.4189 22.3052 29.2686 22.9455C29.2362 23.083 29.2547 23.2275 29.3205 23.3524C29.6574 23.9921 29.8281 24.6838 29.8281 25.4086C29.8281 27.8456 27.8456 29.8281 25.4086 29.8281Z" fill="white"/>
<path d="M21.0001 16.4701C22.7284 16.4701 24.1888 17.3731 24.1888 18.442C24.1888 18.7657 24.4511 19.028 24.7748 19.028C25.0983 19.028 25.3607 18.7657 25.3607 18.442C25.3607 17.5584 24.8766 16.7439 23.9978 16.1483C23.1888 15.6001 22.1242 15.2981 21.0001 15.2981C19.8759 15.2981 18.8113 15.6001 18.0023 16.1483C17.1234 16.7439 16.6394 17.5584 16.6394 18.442C16.6394 19.3257 17.1234 20.1403 18.0023 20.7359C18.8112 21.2841 19.8758 21.5859 21.0001 21.5859C22.7284 21.5859 24.1888 22.489 24.1888 23.558C24.1888 24.6269 22.7284 25.5299 21.0001 25.5299C19.2715 25.5299 17.8113 24.6269 17.8113 23.558C17.8113 23.2343 17.549 22.972 17.2253 22.972C16.9019 22.972 16.6394 23.2343 16.6394 23.558C16.6394 24.4415 17.1234 25.2561 18.0023 25.8517C18.8113 26.3998 19.8759 26.7018 21.0001 26.7018C22.1242 26.7018 23.1888 26.3998 23.9978 25.8517C24.8766 25.2561 25.3607 24.4415 25.3607 23.558C25.3607 22.6742 24.8766 21.8597 23.9978 21.2641C23.1888 20.716 22.1242 20.4141 21.0001 20.4141C19.2715 20.4141 17.8113 19.511 17.8113 18.442C17.8113 17.3731 19.2715 16.4701 21.0001 16.4701Z" fill="white"/>
</g>
<defs>
<clipPath id="clip0">
<rect width="20" height="20" fill="white" transform="translate(11 11)"/>
</clipPath>
</defs>
</svg>
