<svg width="10" height="10" viewBox="0 0 10 10" fill="none" xmlns="http://www.w3.org/2000/svg">
<path d="M9.71208 6.06026C10.4363 2.8061 7.58542 -0.15015 4.2375 0.417349C2.42 -0.710566 0 0.564015 0 2.72651C0 3.22943 0.13875 3.70026 0.38 4.10609C-0.292917 7.36775 2.58125 10.2815 5.92625 9.67525C8.29083 10.9257 10.9038 8.43192 9.71208 6.06026ZM6.52958 8.02275C5.65125 8.384 4.20583 8.38609 3.33125 7.92817C2.08417 7.26317 1.8625 5.76609 2.93833 5.76609C3.74917 5.76609 3.4925 6.7115 4.31125 7.09692C4.68708 7.27067 5.495 7.28859 5.96458 6.97192C6.42833 6.66151 6.38583 6.17317 6.13375 5.93984C5.46583 5.32317 3.55458 5.56817 2.68083 4.48859C2.30125 4.02026 2.22958 3.19401 2.69625 2.59485C3.50958 1.54818 5.89625 1.48443 6.9225 2.27485C7.87 3.00818 7.61417 3.98151 6.84958 3.98151C5.93 3.98151 6.41333 2.77818 4.92875 2.77818C3.8525 2.77818 3.42917 3.54359 4.18708 3.91609C5.21458 4.42651 7.83292 4.25609 7.83292 6.25067C7.83083 7.08067 7.32208 7.69942 6.52958 8.02275Z" fill="white"/>
</svg>
