<svg width="42" height="42" viewBox="0 0 42 42" fill="none" xmlns="http://www.w3.org/2000/svg">
<rect width="42" height="42" rx="10" fill="#6F56ED"/>
<g clip-path="url(#clip0)">
<path d="M32.1551 22.8926C32.8711 16.8656 31.8111 13.0605 29.8991 11.3395L29.9001 11.3385C26.8141 8.39954 16.3921 7.96453 12.7001 11.4705C11.0421 13.1855 10.4581 15.7026 10.3941 18.8186C10.3301 21.9356 10.2541 27.7746 15.6951 29.3586H15.7001L15.6951 31.7776C15.6951 31.7776 15.6581 32.7576 16.2841 32.9546C17.0001 33.1866 17.3241 32.7316 19.5511 30.0716C23.2751 30.3946 26.1351 29.6546 26.4601 29.5466C27.2121 29.2946 31.4671 28.7316 32.1551 22.8926ZM20.0002 28.9993C20.0002 28.9993 17.5611 31.3086 16.8281 32.0716C16.5881 32.3196 16.3251 32.2966 16.3291 31.8046C16.3291 31.4816 16.0002 28.3696 16.0002 28.3696C11.3872 27.0476 11.4502 21.4196 11.5002 18.8186C11.5502 16.2166 12.0962 13.9343 13.5002 12.4993C16.7392 9.46227 26.6722 9.81127 29.0002 11.9993C31.8462 14.5223 31.0002 22.4993 31.0002 22.4993C30.4152 27.3733 26.6342 28.1586 26.0002 28.3696C25.7292 28.4596 23.1582 29.2103 20.0002 28.9993Z" fill="white"/>
<path d="M21.2219 13.2988C20.8369 13.2988 20.8369 13.8988 21.2219 13.9038C24.2089 13.9268 26.6689 16.0088 26.6959 19.8278C26.6959 20.2308 27.2859 20.2258 27.2809 19.8228H27.2799C27.2479 15.7078 24.5619 13.3218 21.2219 13.2988Z" fill="white"/>
<path d="M25.151 19.1932C25.142 19.5912 25.731 19.6102 25.736 19.2072C25.785 16.9381 24.386 15.069 21.7569 14.872C21.3719 14.844 21.3319 15.4491 21.7159 15.4771C23.996 15.6501 25.197 17.2061 25.151 19.1932Z" fill="white"/>
<path d="M24.5212 21.7741C24.0272 21.4881 23.5242 21.6661 23.3162 21.9471L22.8812 22.5101C22.6602 22.7961 22.2472 22.7581 22.2472 22.7581C19.2332 21.9611 18.4272 18.8071 18.4272 18.8071C18.4272 18.8071 18.3902 18.3801 18.6662 18.1511L19.2102 17.7011C19.4822 17.4851 19.6542 16.9651 19.3772 16.4541C18.6372 15.1171 18.1402 14.6561 17.8872 14.3021C17.6212 13.9691 17.2212 13.8941 16.8052 14.1191H16.7962C15.9312 14.6251 14.9842 15.5721 15.2872 16.5471C15.8042 17.5751 16.7542 20.8521 19.7822 23.3281C21.2052 24.4991 23.4572 25.6991 24.4132 25.9761L24.4222 25.9901C25.3642 26.3041 26.2802 25.3201 26.7692 24.4291V24.4221C26.9862 23.9911 26.9142 23.5831 26.5972 23.3161C26.0352 22.7681 25.1872 22.1631 24.5212 21.7741Z" fill="white"/>
<path d="M22.1689 17.1037C23.1299 17.1597 23.5959 17.6617 23.6459 18.6927C23.6639 19.0957 24.2489 19.0677 24.2309 18.6647C24.1669 17.3187 23.4649 16.5687 22.2009 16.4987C21.8159 16.4757 21.7799 17.0807 22.1689 17.1037Z" fill="white"/>
</g>
<defs>
<clipPath id="clip0">
<rect width="24" height="24" fill="white" transform="translate(9 9)"/>
</clipPath>
</defs>
</svg>
