<svg width="17" height="15" viewBox="0 0 17 15" fill="none" xmlns="http://www.w3.org/2000/svg">
<g clip-path="url(#clip0)">
<path d="M16.4011 8.68357C16.9083 4.91669 16.1575 2.53857 14.8032 1.46294L14.8039 1.46232C12.6179 -0.374557 5.23569 -0.646433 2.62052 1.54482C1.44611 2.61669 1.03244 4.18982 0.987107 6.13732C0.941773 8.08545 0.88794 11.7348 4.74198 12.7248H4.74552L4.74198 14.2367C4.74198 14.2367 4.71577 14.8492 5.15919 14.9723C5.66636 15.1173 5.89586 14.8329 7.47331 13.1704C10.1111 13.3723 12.137 12.9098 12.3672 12.8423C12.8999 12.6848 15.9138 12.3329 16.4011 8.68357ZM7.73327 12.1067C7.73327 12.1067 6.06373 13.9436 5.54452 14.4204C5.37452 14.5754 5.18823 14.5611 5.19107 14.2536C5.19107 14.0517 5.20381 11.7436 5.20381 11.7436C1.93627 10.9173 2.12894 7.80982 2.16436 6.1842C2.19977 4.55794 2.53694 3.22607 3.53144 2.32919C5.82573 0.431068 12.2978 0.855443 13.9468 2.22294C15.9627 3.79982 15.2451 8.25482 15.2494 8.4067C14.835 11.4529 12.3927 11.6461 11.9436 11.7779C11.7516 11.8342 9.97019 12.2386 7.73327 12.1067Z" fill="#C8C8CB"/>
<path d="M8.65717 2.68555C8.38446 2.68555 8.38446 3.06055 8.65717 3.06367C10.773 3.07805 12.5155 4.3793 12.5346 6.76617C12.5346 7.01805 12.9525 7.01492 12.949 6.76305H12.9483C12.9256 4.19117 11.023 2.69992 8.65717 2.68555Z" fill="#C8C8CB"/>
<path d="M11.4404 6.37124C11.434 6.62 11.8512 6.63188 11.8547 6.37999C11.8894 4.96181 10.8985 3.79364 9.03625 3.67051C8.76354 3.65301 8.7352 4.03115 9.00721 4.04865C10.6222 4.15678 11.4729 5.12932 11.4404 6.37124Z" fill="#C8C8CB"/>
<path d="M10.9942 7.98406C10.6443 7.80531 10.288 7.91656 10.1407 8.09218L9.83255 8.44406C9.67601 8.62281 9.38347 8.59906 9.38347 8.59906C7.24856 8.10093 6.67764 6.12968 6.67764 6.12968C6.67764 6.12968 6.65144 5.86281 6.84693 5.71968L7.23227 5.43843C7.42493 5.30343 7.54677 4.97843 7.35056 4.65906C6.82639 3.82343 6.47435 3.53531 6.29514 3.31406C6.10673 3.10593 5.8234 3.05906 5.52873 3.19968H5.52236C4.90965 3.51593 4.23886 4.10781 4.45348 4.71718C4.81969 5.35968 5.4926 7.40781 7.63743 8.95531C8.64539 9.68718 10.2405 10.4372 10.9177 10.6103L10.9241 10.6191C11.5913 10.8153 12.2402 10.2003 12.5865 9.64343V9.63906C12.7402 9.36968 12.6892 9.11468 12.4647 8.94781C12.0666 8.60531 11.466 8.22718 10.9942 7.98406Z" fill="#C8C8CB"/>
<path d="M9.32796 5.06602C10.0087 5.10102 10.3388 5.41477 10.3742 6.05915C10.3869 6.31102 10.8013 6.29352 10.7886 6.04165C10.7432 5.2004 10.246 4.73165 9.35063 4.6879C9.07792 4.67352 9.05241 5.05165 9.32796 5.06602Z" fill="#C8C8CB"/>
</g>
<defs>
<clipPath id="clip0">
<rect width="17" height="15" fill="white"/>
</clipPath>
</defs>
</svg>
