<svg width="42" height="42" viewBox="0 0 42 42" fill="none" xmlns="http://www.w3.org/2000/svg">
<rect x="0.5" y="0.5" width="41" height="41" rx="9.5" fill="#3FB969" stroke="#3FB969"/>
<path d="M14.293 14.2573L14.293 14.2573C12.4925 16.0388 11.5024 18.4024 11.5 20.9076V20.9104V20.9122L14.293 14.2573ZM14.293 14.2573C16.0907 12.4784 18.4677 11.5001 20.9897 11.5L14.293 14.2573ZM12.7452 25.5186L12.7052 25.7005L11.685 30.3376L16.3856 29.2684L16.561 29.2285L16.7215 29.3094C18.0368 29.9723 19.5053 30.3221 20.9861 30.3227C20.9862 30.3227 20.9862 30.3227 20.9863 30.3227H20.9901C23.5117 30.3227 25.8888 29.3442 27.6869 27.565L27.6869 27.565C29.4893 25.7818 30.4796 23.4214 30.4808 20.9149L12.7452 25.5186ZM12.7452 25.5186L12.6565 25.3549M12.7452 25.5186L12.6565 25.3549M12.6565 25.3549C11.8973 23.953 11.5003 22.4227 11.5 20.9123L12.6565 25.3549ZM27.6753 14.2586C25.8905 12.4804 23.5181 11.5011 20.9899 11.5L27.6753 14.2586ZM27.6753 14.2586C29.4886 16.0654 30.4815 18.4286 30.4808 20.9148L27.6753 14.2586ZM20.9862 29.7617H20.9864H20.9899C25.9078 29.7617 29.9177 25.7979 29.9196 20.9148C29.9205 18.5726 28.9789 16.3495 27.2794 14.656L27.2794 14.6559C25.6009 12.9839 23.3655 12.0619 20.9898 12.061H20.9896C16.0727 12.061 12.064 16.0286 12.061 20.9103V20.9106C12.061 22.4258 12.4872 23.9531 13.2857 25.3301L13.3722 25.28L13.2857 25.3301L13.3404 25.4244L12.5922 28.8245L12.4228 29.5943L13.1914 29.4195L16.6444 28.6341L16.7374 28.6846C18.0349 29.3891 19.5037 29.7611 20.9862 29.7617Z" stroke="white"/>
<path d="M18.2714 16.541H17.8335C17.681 16.541 17.4335 16.5981 17.2242 16.8259C17.0147 17.0539 16.4243 17.6049 16.4243 18.7255C16.4243 19.8461 17.2433 20.9288 17.3574 21.081C17.4717 21.2329 18.9382 23.606 21.2609 24.5189C23.1913 25.2776 23.5842 25.1267 24.0031 25.0887C24.4221 25.0508 25.3551 24.5378 25.5456 24.0061C25.736 23.4743 25.736 23.0184 25.6789 22.9232C25.6217 22.8282 25.4693 22.7713 25.2408 22.6575C25.0123 22.5435 23.8923 21.9832 23.6828 21.9071C23.4733 21.8312 23.321 21.7932 23.1685 22.0214C23.0161 22.249 22.5674 22.7758 22.434 22.9277C22.3008 23.0799 22.1674 23.0989 21.9388 22.985C21.7103 22.8707 20.9818 22.6259 20.1089 21.8502C19.4294 21.2464 18.9579 20.4764 18.8245 20.2484C18.6913 20.0206 18.8103 19.8973 18.9249 19.7837C19.0276 19.6817 19.1663 19.5423 19.2806 19.4094C19.3947 19.2763 19.4272 19.1814 19.5035 19.0294C19.5797 18.8774 19.5415 18.7444 19.4845 18.6306C19.4272 18.5166 18.9887 17.3903 18.7855 16.9399H18.7856C18.6144 16.5605 18.4342 16.5477 18.2714 16.541Z" fill="white"/>
</svg>
