<svg width="16" height="16" viewBox="0 0 16 16" fill="none" xmlns="http://www.w3.org/2000/svg">
<rect width="16" height="16" rx="3" fill="url(#paint0_linear)"/>
<path fill-rule="evenodd" clip-rule="evenodd" d="M10.0835 3.83301H5.91683C4.76624 3.83301 3.8335 4.76575 3.8335 5.91634V10.083C3.8335 11.2336 4.76624 12.1663 5.91683 12.1663H10.0835C11.2341 12.1663 12.1668 11.2336 12.1668 10.083V5.91634C12.1668 4.76575 11.2341 3.83301 10.0835 3.83301ZM7.3657 6.72418C7.63019 6.58694 7.93122 6.53659 8.22597 6.5803C8.52663 6.62489 8.80498 6.76499 9.0199 6.97991C9.23483 7.19483 9.37493 7.47318 9.41951 7.77384C9.46322 8.0686 9.41288 8.36963 9.27564 8.63412C9.1384 8.89861 8.92125 9.11309 8.65509 9.24706C8.38893 9.38103 8.0873 9.42766 7.7931 9.38032C7.49891 9.33298 7.22714 9.19408 7.01644 8.98338C6.80573 8.77268 6.66684 8.5009 6.6195 8.20671C6.57216 7.91252 6.61879 7.61089 6.75275 7.34473C6.88672 7.07856 7.1012 6.86142 7.3657 6.72418ZM8.29931 6.08571C7.90053 6.02658 7.49325 6.09469 7.13541 6.28037C6.77757 6.46604 6.48739 6.75983 6.30614 7.11993C6.12489 7.48003 6.0618 7.88812 6.12585 8.28615C6.18989 8.68417 6.37782 9.05187 6.66288 9.33693C6.94795 9.622 7.31564 9.80992 7.71367 9.87397C8.11169 9.93802 8.51978 9.87493 8.87988 9.69368C9.23999 9.51243 9.53377 9.22225 9.71945 8.8644C9.90512 8.50656 9.97324 8.09929 9.9141 7.7005C9.85379 7.29373 9.66424 6.91714 9.37346 6.62636C9.08268 6.33558 8.70609 6.14603 8.29931 6.08571ZM9.79183 5.70801C9.79183 5.43187 10.0157 5.20801 10.2918 5.20801H10.2968C10.573 5.20801 10.7968 5.43187 10.7968 5.70801C10.7968 5.98415 10.573 6.20801 10.2968 6.20801H10.2918C10.0157 6.20801 9.79183 5.98415 9.79183 5.70801Z" fill="white"/>
<defs>
<linearGradient id="paint0_linear" x1="8" y1="0" x2="8" y2="16" gradientUnits="userSpaceOnUse">
<stop stop-color="#6F56ED"/>
<stop offset="1" stop-color="#FF0202" stop-opacity="0.79"/>
</linearGradient>
</defs>
</svg>
