<svg width="16" height="16" viewBox="0 0 16 16" fill="none" xmlns="http://www.w3.org/2000/svg">
<rect width="16" height="16" rx="3" fill="#289BFF"/>
<path d="M5.36312 11.2344V10.9838L5.16235 10.8338C4.13949 10.0697 3.5 8.91302 3.5 7.62937C3.5 5.38423 5.47791 3.5 8 3.5C10.522 3.5 12.5 5.38418 12.5 7.63C12.5 9.87515 10.5221 11.7594 8 11.7594C7.54694 11.7594 7.11049 11.6975 6.69887 11.5837L6.50311 11.5296L6.32506 11.6273L5.36312 12.1552V11.2344Z" fill="white" stroke="white"/>
<path d="M8.49676 9.23426L7.22363 7.87613L4.73926 9.23426L7.47176 6.33301L8.77613 7.69113L11.2299 6.33301L8.49676 9.23426Z" fill="#1E88E5"/>
</svg>
