<svg width="16" height="16" viewBox="0 0 16 16" fill="none" xmlns="http://www.w3.org/2000/svg">
<rect width="16" height="16" rx="3" fill="#289BFF"/>
<g clip-path="url(#clip0)">
<path d="M12.7121 9.06026C13.4363 5.8061 10.5854 2.84985 7.2375 3.41735C5.42 2.28943 3 3.56402 3 5.72651C3 6.22943 3.13875 6.70026 3.38 7.10609C2.70708 10.3678 5.58125 13.2815 8.92625 12.6753C11.2908 13.9257 13.9038 11.4319 12.7121 9.06026ZM9.52958 11.0228C8.65125 11.384 7.20583 11.3861 6.33125 10.9282C5.08417 10.2632 4.8625 8.76609 5.93833 8.76609C6.74917 8.76609 6.4925 9.7115 7.31125 10.0969C7.68708 10.2707 8.495 10.2886 8.96458 9.97192C9.42833 9.66151 9.38583 9.17317 9.13375 8.93984C8.46583 8.32317 6.55458 8.56817 5.68083 7.48859C5.30125 7.02026 5.22958 6.19401 5.69625 5.59485C6.50958 4.54818 8.89625 4.48443 9.9225 5.27485C10.87 6.00818 10.6142 6.98151 9.84958 6.98151C8.93 6.98151 9.41333 5.77818 7.92875 5.77818C6.8525 5.77818 6.42917 6.54359 7.18708 6.91609C8.21458 7.42651 10.8329 7.25609 10.8329 9.25067C10.8308 10.0807 10.3221 10.6994 9.52958 11.0228Z" fill="white"/>
</g>
<defs>
<clipPath id="clip0">
<rect width="10" height="10" fill="white" transform="translate(3 3)"/>
</clipPath>
</defs>
</svg>
