<svg width="42" height="42" viewBox="0 0 42 42" fill="none" xmlns="http://www.w3.org/2000/svg">
<rect width="10" height="10" rx="4" fill="#FF5C00"/>
<path fill-rule="evenodd" clip-rule="evenodd" d="M34 26.9643C34 27.9235 33.1619 28.75 32.1647 28.75H28.1882C27.8478 28.75 27.5765 28.9744 27.5765 29.3452V34.7024C27.5765 34.922 27.4991 35 27.296 35C27.225 35 27.1519 34.9542 27.0314 34.864L19.7003 29.3452C18.7827 28.75 17.8256 28.7482 17.8256 28.7482L9.80532 28.7476C8.80814 28.7476 8 27.9699 8 27.0107V11.795C8 10.8363 8.88584 9.99526 9.83529 10H32.1647C33.2543 10 34 10.8268 34 11.7857V26.9643Z" fill="white"/>
<path d="M12.6196 20.7192H13.4985V21.374C13.4985 21.5557 13.5176 21.7036 13.5557 21.8179C13.5967 21.9321 13.6743 22.0215 13.7886 22.0859C13.9028 22.1504 14.064 22.1943 14.272 22.2178C14.4829 22.2412 14.7583 22.2529 15.0981 22.2529C15.4058 22.2529 15.6519 22.2456 15.8364 22.231C16.0239 22.2134 16.1689 22.1841 16.2715 22.1431C16.377 22.1021 16.4502 22.0449 16.4912 21.9717C16.5352 21.8955 16.5659 21.8003 16.5835 21.686C16.6011 21.5542 16.6099 21.3184 16.6099 20.9785C16.6099 20.7881 16.5923 20.6343 16.5571 20.5171C16.5249 20.3999 16.4692 20.3105 16.3901 20.249C16.311 20.1846 16.2056 20.1421 16.0737 20.1216C15.9419 20.0981 15.7793 20.0864 15.5859 20.0864H14.5269V19.2646H15.498C15.8936 19.2646 16.1602 19.2002 16.2979 19.0713V19.0757C16.4326 18.9409 16.5 18.6523 16.5 18.21C16.5 18.0605 16.4971 17.939 16.4912 17.8452C16.4854 17.7515 16.4736 17.6753 16.4561 17.6167C16.4414 17.5552 16.4209 17.5083 16.3945 17.4761C16.3711 17.4409 16.3418 17.4087 16.3066 17.3794C16.2393 17.3267 16.1001 17.2871 15.8892 17.2607C15.6782 17.2344 15.3706 17.2212 14.9663 17.2212C14.6763 17.2212 14.4419 17.2329 14.2632 17.2563C14.0874 17.2769 13.9512 17.3149 13.8545 17.3706C13.7578 17.4263 13.6934 17.5024 13.6611 17.5991C13.6289 17.6958 13.6128 17.8188 13.6128 17.9683V18.6318H12.7339V17.9858C12.7339 17.7017 12.7749 17.4585 12.8569 17.2563C12.939 17.0513 13.0679 16.8857 13.2437 16.7598C13.4224 16.6309 13.6523 16.5371 13.9336 16.4785C14.2148 16.417 14.5532 16.3862 14.9487 16.3862C15.2065 16.3862 15.4277 16.3892 15.6123 16.395C15.7969 16.4009 15.9551 16.4111 16.0869 16.4258C16.2188 16.4404 16.3315 16.4609 16.4253 16.4873C16.519 16.5107 16.6055 16.5415 16.6846 16.5796C16.8105 16.644 16.9189 16.7173 17.0098 16.7993C17.1006 16.8813 17.1738 16.9839 17.2295 17.1069C17.2881 17.2271 17.3306 17.3735 17.3569 17.5464C17.3833 17.7192 17.3965 17.9272 17.3965 18.1704C17.3965 18.4077 17.3833 18.6099 17.3569 18.7769C17.3306 18.9409 17.2896 19.0801 17.2339 19.1943C17.1812 19.3057 17.1123 19.3965 17.0273 19.4668C16.9453 19.5342 16.8457 19.5898 16.7285 19.6338C16.8633 19.6777 16.979 19.7363 17.0757 19.8096C17.1753 19.8799 17.2559 19.9707 17.3174 20.082C17.3789 20.1934 17.4243 20.3281 17.4536 20.4863C17.4829 20.6445 17.4976 20.832 17.4976 21.0488C17.4976 21.3389 17.4829 21.5879 17.4536 21.7959C17.4243 22.0039 17.376 22.1812 17.3086 22.3276C17.2441 22.4712 17.1577 22.5898 17.0493 22.6836C16.9438 22.7744 16.8149 22.8506 16.6626 22.9121C16.3462 23.0234 15.8306 23.0791 15.1157 23.0791C14.77 23.0791 14.4844 23.0718 14.2588 23.0571C14.0361 23.0454 13.8589 23.0234 13.7271 22.9912C13.6011 22.959 13.4854 22.918 13.3799 22.8682C13.2773 22.8184 13.1865 22.7554 13.1074 22.6792H13.1118C12.9419 22.521 12.8174 22.3335 12.7383 22.1167C12.6592 21.8999 12.6196 21.6289 12.6196 21.3037V20.7192ZM21.4043 22.2529C21.7266 22.2529 21.9624 22.2324 22.1118 22.1914H22.1074C22.4004 22.0947 22.5791 21.9087 22.6436 21.6333C22.6611 21.5601 22.6743 21.4546 22.6831 21.3169C22.6948 21.1763 22.7007 21.0049 22.7007 20.8027V18.6714C22.7007 18.4634 22.6963 18.2935 22.6875 18.1616C22.6816 18.0298 22.6685 17.9214 22.6479 17.8364C22.6304 17.7515 22.6055 17.6841 22.5732 17.6343C22.5439 17.5815 22.5059 17.5317 22.459 17.4849C22.4062 17.438 22.3506 17.397 22.292 17.3618C22.2363 17.3267 22.1689 17.2988 22.0898 17.2783C22.0107 17.2549 21.9155 17.2388 21.8042 17.23C21.6958 17.2183 21.5625 17.2124 21.4043 17.2124H20.8462C20.688 17.2124 20.5518 17.2168 20.4375 17.2256C20.3262 17.2314 20.231 17.2446 20.1519 17.2651C20.0728 17.2856 20.0039 17.3135 19.9453 17.3486C19.8896 17.3809 19.8384 17.4233 19.7915 17.4761C19.7446 17.5259 19.7051 17.5771 19.6729 17.6299C19.6436 17.6826 19.6187 17.7515 19.5981 17.8364C19.5806 17.9185 19.5674 18.0254 19.5586 18.1572C19.5498 18.2891 19.5454 18.4604 19.5454 18.6714V20.7939C19.5454 20.9961 19.5483 21.1631 19.5542 21.2949C19.563 21.4238 19.5762 21.5322 19.5938 21.6201C19.6143 21.7051 19.6406 21.7754 19.6729 21.8311C19.7051 21.8838 19.7446 21.9351 19.7915 21.9849C19.8384 22.0347 19.8896 22.0757 19.9453 22.1079C20.001 22.1401 20.0625 22.168 20.1299 22.1914H20.1255C20.2808 22.2324 20.521 22.2529 20.8462 22.2529H21.4043ZM20.8198 23.0791C20.4185 23.0791 20.0786 23.0396 19.8003 22.9604C19.5249 22.8784 19.3008 22.748 19.1279 22.5693C18.958 22.3906 18.835 22.1577 18.7588 21.8706C18.6855 21.5806 18.6489 21.2275 18.6489 20.8115V18.6538C18.6489 18.2349 18.687 17.8818 18.7632 17.5947C18.8394 17.3047 18.9624 17.0703 19.1323 16.8916C19.3052 16.7129 19.5293 16.584 19.8047 16.5049C20.0801 16.4258 20.4185 16.3862 20.8198 16.3862H21.4307C22.2334 16.3862 22.7944 16.5547 23.1138 16.8916H23.1094C23.4346 17.2344 23.5972 17.8218 23.5972 18.6538V20.8115C23.5972 21.6436 23.4346 22.231 23.1094 22.5737H23.1138C22.7944 22.9106 22.2334 23.0791 21.4307 23.0791H20.8198ZM24.7837 20.7192H25.6626V21.374C25.6626 21.5557 25.6816 21.7036 25.7197 21.8179C25.7607 21.9321 25.8384 22.0215 25.9526 22.0859C26.0669 22.1504 26.228 22.1943 26.436 22.2178C26.647 22.2412 26.9224 22.2529 27.2622 22.2529C27.5698 22.2529 27.8159 22.2456 28.0005 22.231C28.188 22.2134 28.333 22.1841 28.4355 22.1431C28.541 22.1021 28.6143 22.0449 28.6553 21.9717C28.6992 21.8955 28.73 21.8003 28.7476 21.686C28.7651 21.5542 28.7739 21.3184 28.7739 20.9785C28.7739 20.7881 28.7563 20.6343 28.7212 20.5171C28.689 20.3999 28.6333 20.3105 28.5542 20.249C28.4751 20.1846 28.3696 20.1421 28.2378 20.1216C28.106 20.0981 27.9434 20.0864 27.75 20.0864H26.6909V19.2646H27.6621C28.0576 19.2646 28.3242 19.2002 28.4619 19.0713V19.0757C28.5967 18.9409 28.6641 18.6523 28.6641 18.21C28.6641 18.0605 28.6611 17.939 28.6553 17.8452C28.6494 17.7515 28.6377 17.6753 28.6201 17.6167C28.6055 17.5552 28.585 17.5083 28.5586 17.4761C28.5352 17.4409 28.5059 17.4087 28.4707 17.3794C28.4033 17.3267 28.2642 17.2871 28.0532 17.2607C27.8423 17.2344 27.5347 17.2212 27.1304 17.2212C26.8403 17.2212 26.606 17.2329 26.4272 17.2563C26.2515 17.2769 26.1152 17.3149 26.0186 17.3706C25.9219 17.4263 25.8574 17.5024 25.8252 17.5991C25.793 17.6958 25.7769 17.8188 25.7769 17.9683V18.6318H24.8979V17.9858C24.8979 17.7017 24.939 17.4585 25.021 17.2563C25.103 17.0513 25.2319 16.8857 25.4077 16.7598C25.5864 16.6309 25.8164 16.5371 26.0977 16.4785C26.3789 16.417 26.7173 16.3862 27.1128 16.3862C27.3706 16.3862 27.5918 16.3892 27.7764 16.395C27.9609 16.4009 28.1191 16.4111 28.251 16.4258C28.3828 16.4404 28.4956 16.4609 28.5894 16.4873C28.6831 16.5107 28.7695 16.5415 28.8486 16.5796C28.9746 16.644 29.083 16.7173 29.1738 16.7993C29.2646 16.8813 29.3379 16.9839 29.3936 17.1069C29.4521 17.2271 29.4946 17.3735 29.521 17.5464C29.5474 17.7192 29.5605 17.9272 29.5605 18.1704C29.5605 18.4077 29.5474 18.6099 29.521 18.7769C29.4946 18.9409 29.4536 19.0801 29.3979 19.1943C29.3452 19.3057 29.2764 19.3965 29.1914 19.4668C29.1094 19.5342 29.0098 19.5898 28.8926 19.6338C29.0273 19.6777 29.1431 19.7363 29.2397 19.8096C29.3394 19.8799 29.4199 19.9707 29.4814 20.082C29.543 20.1934 29.5884 20.3281 29.6177 20.4863C29.647 20.6445 29.6616 20.832 29.6616 21.0488C29.6616 21.3389 29.647 21.5879 29.6177 21.7959C29.5884 22.0039 29.54 22.1812 29.4727 22.3276C29.4082 22.4712 29.3218 22.5898 29.2134 22.6836C29.1079 22.7744 28.979 22.8506 28.8267 22.9121C28.5103 23.0234 27.9946 23.0791 27.2798 23.0791C26.9341 23.0791 26.6484 23.0718 26.4229 23.0571C26.2002 23.0454 26.0229 23.0234 25.8911 22.9912C25.7651 22.959 25.6494 22.918 25.5439 22.8682C25.4414 22.8184 25.3506 22.7554 25.2715 22.6792H25.2759C25.106 22.521 24.9814 22.3335 24.9023 22.1167C24.8232 21.8999 24.7837 21.6289 24.7837 21.3037V20.7192Z" fill="#FF5C00"/>
</svg>
