<svg width="16" height="16" viewBox="0 0 16 16" fill="none" xmlns="http://www.w3.org/2000/svg">
<rect width="16" height="16" rx="3" fill="#6F56ED"/>
<g clip-path="url(#clip0)">
<path d="M12.6477 8.7884C12.946 6.27715 12.5044 4.69173 11.7077 3.97464L11.7081 3.97423C10.4223 2.74964 6.07979 2.56839 4.54146 4.02923C3.85062 4.74381 3.60729 5.79256 3.58062 7.0909C3.55396 8.38965 3.52229 10.8226 5.78937 11.4826H5.79146L5.78937 12.4905C5.78937 12.4905 5.77396 12.8988 6.03479 12.9809C6.33312 13.0776 6.46812 12.888 7.39604 11.7796C8.94771 11.9142 10.1394 11.6059 10.2748 11.5609C10.5881 11.4559 12.361 11.2213 12.6477 8.7884Z" fill="white"/>
<path d="M8.09248 4.79102C7.93206 4.79102 7.93206 5.04102 8.09248 5.0431C9.33706 5.05268 10.3621 5.92018 10.3733 7.51143C10.3733 7.67935 10.6191 7.67727 10.6171 7.50935H10.6166C10.6033 5.79477 9.48415 4.8006 8.09248 4.79102Z" fill="#6F56ED"/>
<path d="M9.72973 7.24717C9.72598 7.41301 9.9714 7.42093 9.97349 7.253C9.9939 6.30755 9.41098 5.52877 8.31556 5.44668C8.15514 5.43501 8.13847 5.68711 8.29847 5.69878C9.24848 5.77086 9.7489 6.41922 9.72973 7.24717Z" fill="#6F56ED"/>
<path d="M9.46724 8.32238C9.26141 8.20321 9.05183 8.27738 8.96516 8.39446L8.78391 8.62905C8.69183 8.74821 8.51974 8.73238 8.51974 8.73238C7.26391 8.4003 6.92808 7.08613 6.92808 7.08613C6.92808 7.08613 6.91267 6.90821 7.02767 6.8128L7.25433 6.6253C7.36766 6.5353 7.43933 6.31863 7.32391 6.10571C7.01558 5.54863 6.8085 5.35655 6.70308 5.20905C6.59225 5.0703 6.42558 5.03905 6.25225 5.1328H6.2485C5.88809 5.34363 5.4935 5.73821 5.61975 6.14446C5.83517 6.5728 6.231 7.93821 7.49266 8.96988C8.08558 9.4578 9.02391 9.9578 9.42224 10.0732L9.42599 10.079C9.81849 10.2099 10.2002 9.79988 10.4039 9.42863V9.42571C10.4943 9.24613 10.4643 9.07613 10.3322 8.96488C10.0981 8.73655 9.74474 8.48446 9.46724 8.32238Z" fill="#6F56ED"/>
<path d="M8.48706 6.37637C8.88749 6.39971 9.08166 6.60887 9.10249 7.03846C9.10999 7.20637 9.35374 7.19471 9.34624 7.02679C9.31958 6.46596 9.02707 6.15346 8.5004 6.12429C8.33998 6.11471 8.32498 6.36679 8.48706 6.37637Z" fill="#6F56ED"/>
</g>
<defs>
<clipPath id="clip0">
<rect width="10" height="10" fill="white" transform="translate(3 3)"/>
</clipPath>
</defs>
</svg>
