<svg width="42" height="42" viewBox="0 0 42 42" fill="none" xmlns="http://www.w3.org/2000/svg">
<rect x="0.5" y="0.5" width="41" height="41" rx="9.5" fill="#3FB969" stroke="#3FB969"/>
<path d="M21.0025 11H20.9975C15.4838 11 11 15.485 11 21C11 23.1875 11.705 25.215 12.9037 26.8612L11.6575 30.5763L15.5013 29.3475C17.0825 30.395 18.9688 31 21.0025 31C26.5162 31 31 26.5138 31 21C31 15.4863 26.5162 11 21.0025 11ZM26.8212 25.1213C26.58 25.8025 25.6225 26.3675 24.8587 26.5325C24.3363 26.6437 23.6537 26.7325 21.3562 25.78C18.4175 24.5625 16.525 21.5763 16.3775 21.3825C16.2362 21.1887 15.19 19.8013 15.19 18.3663C15.19 16.9313 15.9188 16.2325 16.2125 15.9325C16.4538 15.6863 16.8525 15.5738 17.235 15.5738C17.3587 15.5738 17.47 15.58 17.57 15.585C17.8637 15.5975 18.0113 15.615 18.205 16.0788C18.4462 16.66 19.0337 18.095 19.1038 18.2425C19.175 18.39 19.2463 18.59 19.1462 18.7838C19.0525 18.9838 18.97 19.0725 18.8225 19.2425C18.675 19.4125 18.535 19.5425 18.3875 19.725C18.2525 19.8837 18.1 20.0538 18.27 20.3475C18.44 20.635 19.0275 21.5937 19.8925 22.3637C21.0087 23.3575 21.9137 23.675 22.2375 23.81C22.4787 23.91 22.7662 23.8863 22.9425 23.6988C23.1663 23.4575 23.4425 23.0575 23.7238 22.6638C23.9237 22.3813 24.1763 22.3462 24.4412 22.4462C24.7113 22.54 26.14 23.2462 26.4338 23.3925C26.7275 23.54 26.9212 23.61 26.9925 23.7338C27.0625 23.8575 27.0625 24.4388 26.8212 25.1213Z" fill="white"/>
</svg>
