<svg width="16" height="16" viewBox="0 0 16 16" fill="none" xmlns="http://www.w3.org/2000/svg">
<rect x="0.5" y="0.5" width="15" height="15" rx="2.5" fill="#3FB969" stroke="#3FB969"/>
<path d="M12.9997 10.4869V11.9923C13.0003 12.1321 12.9716 12.2704 12.9155 12.3985C12.8594 12.5265 12.7771 12.6414 12.6739 12.7359C12.5707 12.8304 12.4489 12.9023 12.3163 12.9471C12.1836 12.9919 12.0431 13.0085 11.9036 12.9959C10.3564 12.8281 8.87022 12.3005 7.56445 11.4554C6.34961 10.685 5.31963 9.65703 4.54767 8.44459C3.69793 7.13549 3.16912 5.64504 3.00408 4.09397C2.99152 3.95521 3.00804 3.81536 3.0526 3.68331C3.09716 3.55127 3.16878 3.42994 3.2629 3.32703C3.35703 3.22413 3.47158 3.14191 3.59929 3.08562C3.72699 3.02932 3.86504 3.00018 4.00465 3.00005H5.51304C5.75705 2.99765 5.99361 3.08389 6.17862 3.24269C6.36364 3.40148 6.48448 3.622 6.51863 3.86315C6.5823 4.34491 6.70037 4.81794 6.87059 5.27321C6.93824 5.45281 6.95288 5.64801 6.91278 5.83567C6.87268 6.02332 6.77952 6.19557 6.64433 6.33201L6.00578 6.9693C6.72154 8.22558 7.76379 9.26576 9.02256 9.9801L9.66112 9.34281C9.79782 9.2079 9.97041 9.11492 10.1584 9.0749C10.3465 9.03488 10.5421 9.04949 10.722 9.117C11.1782 9.28689 11.6522 9.40473 12.1349 9.46827C12.3791 9.50265 12.6022 9.62543 12.7616 9.81325C12.9211 10.0011 13.0058 10.2408 12.9997 10.4869Z" fill="white"/>
</svg>
