<svg width="18" height="18" viewBox="0 0 18 18" fill="none" xmlns="http://www.w3.org/2000/svg">
<path d="M9.00031 0C4.03758 0 0 4.03726 0 9C0 13.9624 4.03758 18 9.00031 18C13.9624 18 17.9997 13.9627 17.9997 9C17.9997 4.03726 13.9627 0 9.00031 0ZM9.00031 17.0585C4.55647 17.0585 0.94116 13.4435 0.94116 8.99969C0.94116 4.55616 4.55647 0.940846 9.00031 0.940846C13.4435 0.940846 17.0585 4.55584 17.0585 8.99969C17.0585 13.4435 13.4438 17.0585 9.00031 17.0585Z" fill="#F5003B"/>
<path d="M9.82128 4.63649C9.75194 4.47775 9.55524 4.34912 9.38238 4.34912H8.57455C8.40107 4.34912 8.20499 4.47775 8.1366 4.63712L4.98089 11.938C4.91219 12.0968 4.99689 12.226 5.17038 12.226H6.45632C6.6298 12.226 6.82149 12.0949 6.88486 11.9336L7.31152 10.8485C7.37489 10.6872 7.56657 10.5567 7.74006 10.5567H10.1717C10.3455 10.5567 10.5388 10.6866 10.6037 10.8472L11.046 11.9349C11.111 12.0955 11.3045 12.226 11.478 12.226H12.8082C12.9817 12.226 13.0658 12.0974 12.9971 11.938L9.82128 4.63649ZM9.58222 9.0888H8.28499C8.1115 9.0888 8.02241 8.95767 8.08546 8.79642L8.81361 6.93323C8.87667 6.77135 8.97957 6.77135 9.04356 6.93261L9.78081 8.79704C9.84386 8.9583 9.75571 9.0888 9.58222 9.0888Z" fill="#F5003B"/>
</svg>
