<svg width="17" height="19" viewBox="0 0 17 19" fill="none" xmlns="http://www.w3.org/2000/svg">
<path d="M1.76471 4H5.29412L7.05882 8.41176L4.85294 9.73529C5.7979 11.6514 7.34865 13.2021 9.26471 14.1471L10.5882 11.9412L15 13.7059V17.2353C15 17.7033 14.8141 18.1522 14.4831 18.4831C14.1522 18.8141 13.7033 19 13.2353 19C9.79347 18.7908 6.54719 17.3293 4.10897 14.891C1.67074 12.4528 0.209161 9.20653 0 5.76471C0 5.29668 0.185924 4.84782 0.51687 4.51687C0.847817 4.18592 1.29668 4 1.76471 4Z" fill="#0DD339"/>
<path d="M15.9997 5.09991L7.9997 4.90009" stroke="#0DD339" stroke-width="2" stroke-linecap="round" stroke-linejoin="round"/>
<path d="M11.332 8.26758L8.00174 4.84773L11.4216 1.51744" stroke="#0DD339" stroke-width="2" stroke-linecap="round" stroke-linejoin="round"/>
</svg>
