<svg width="18" height="18" viewBox="0 0 18 18" fill="none" xmlns="http://www.w3.org/2000/svg">
<path d="M9.00002 4.00003C10.1046 4.00003 11 3.10459 11 2.00002C11 0.895437 10.1046 0 9.00002 0C7.89544 0 7 0.895437 7 2.00002C7 3.10459 7.89544 4.00003 9.00002 4.00003Z" fill="#3E4457"/>
<path d="M9.00002 11C10.1046 11 11 10.1046 11 9.00002C11 7.89544 10.1046 7 9.00002 7C7.89544 7 7 7.89544 7 9.00002C7 10.1046 7.89544 11 9.00002 11Z" fill="#3E4457"/>
<path d="M9.00002 18C10.1046 18 11 17.1046 11 16C11 14.8954 10.1046 14 9.00002 14C7.89544 14 7 14.8954 7 16C7 17.1046 7.89544 18 9.00002 18Z" fill="#3E4457"/>
</svg>
