<svg width="42" height="42" viewBox="0 0 42 42" fill="none" xmlns="http://www.w3.org/2000/svg">
<circle cx="21" cy="21" r="21" fill="#FEB019"/>
<path d="M15.0044 18.7905C15.0044 17.9937 15.0819 17.3241 15.2368 16.7817C15.3918 16.2339 15.6463 15.7939 16.0005 15.4619C16.3547 15.1243 16.8167 14.8809 17.3867 14.7314C17.9622 14.582 18.665 14.5073 19.4951 14.5073H21.0142C22.5526 14.5073 23.6842 14.7729 24.4092 15.3042C25.1396 15.8354 25.5049 16.66 25.5049 17.7778V18.4502H23.8115V18.1431C23.8115 17.7446 23.7673 17.4154 23.6787 17.1553C23.5957 16.8896 23.4463 16.6794 23.2305 16.5244C23.0146 16.3639 22.7214 16.2505 22.3506 16.1841C21.9798 16.1177 21.5094 16.0845 20.9395 16.0845H19.877C19.4508 16.0845 19.0967 16.0955 18.8145 16.1177C18.5378 16.1343 18.3053 16.1647 18.1172 16.209C17.929 16.2477 17.7713 16.3031 17.644 16.375C17.5223 16.4469 17.4033 16.5355 17.2871 16.6406C17.182 16.7347 17.0907 16.8398 17.0132 16.9561C16.9412 17.0667 16.8831 17.2023 16.8389 17.3628V17.3545C16.8001 17.515 16.7697 17.7419 16.7476 18.0352C16.7254 18.3285 16.7144 18.6909 16.7144 19.1226V22.5425C16.7144 22.9741 16.7254 23.3338 16.7476 23.6216C16.7697 23.9093 16.8001 24.1335 16.8389 24.2939V24.2856C16.9385 24.6232 17.1017 24.8805 17.3286 25.0576C17.561 25.2347 17.8267 25.362 18.1255 25.4395C18.4409 25.528 19.0247 25.5723 19.877 25.5723H20.9395C21.3213 25.5723 21.6367 25.564 21.8857 25.5474C22.1403 25.5308 22.3534 25.5059 22.5249 25.4727C22.6965 25.4339 22.8376 25.3841 22.9482 25.3232C23.0645 25.2568 23.1751 25.1738 23.2803 25.0742C23.3799 24.9801 23.4629 24.8805 23.5293 24.7754C23.6012 24.6702 23.6566 24.5347 23.6953 24.3687C23.7396 24.2026 23.77 23.9979 23.7866 23.7544C23.8032 23.5054 23.8115 23.1927 23.8115 22.8164V22.2354H20.4746V20.6914H25.5049V22.8662C25.5049 23.6631 25.4274 24.3354 25.2725 24.8833C25.123 25.4256 24.8713 25.8656 24.5171 26.2031C24.1685 26.5352 23.7064 26.7759 23.1309 26.9253C22.5609 27.0747 21.8553 27.1494 21.0142 27.1494H19.4951C18.654 27.1494 17.9456 27.0747 17.3701 26.9253C16.8001 26.7759 16.3381 26.5352 15.9839 26.2031C15.6353 25.8656 15.3835 25.4256 15.2285 24.8833C15.0791 24.3354 15.0044 23.6631 15.0044 22.8662V18.7905Z" fill="white"/>
</svg>
