<svg width="18" height="18" viewBox="0 0 18 18" fill="none" xmlns="http://www.w3.org/2000/svg">
<circle cx="9" cy="9" r="8.5" stroke="#1E88E5"/>
<path d="M13.1667 8.16665H9.83335V4.83335C9.83335 4.37335 9.46084 4 9 4C8.53916 4 8.16665 4.37335 8.16665 4.83335V8.16665H4.83335C4.37251 8.16665 4 8.54 4 9C4 9.46 4.37251 9.83335 4.83335 9.83335H8.16665V13.1667C8.16665 13.6267 8.53916 14 9 14C9.46084 14 9.83335 13.6267 9.83335 13.1667V9.83335H13.1667C13.6275 9.83335 14 9.46 14 9C14 8.54 13.6275 8.16665 13.1667 8.16665Z" fill="#575757"/>
</svg>
