<svg width="16" height="16" viewBox="0 0 16 16" fill="none" xmlns="http://www.w3.org/2000/svg">
<path d="M7.99967 10.6667C9.47243 10.6667 10.6663 9.4728 10.6663 8.00004C10.6663 6.52728 9.47243 5.33337 7.99967 5.33337C6.52692 5.33337 5.33301 6.52728 5.33301 8.00004C5.33301 9.4728 6.52692 10.6667 7.99967 10.6667Z" stroke="#15222C" stroke-width="1.33333" stroke-linecap="round" stroke-linejoin="round"/>
<path d="M10.6663 5.33333V8.66666C10.6663 9.19709 10.8771 9.7058 11.2521 10.0809C11.6272 10.4559 12.1359 10.6667 12.6663 10.6667C13.1968 10.6667 13.7055 10.4559 14.0806 10.0809C14.4556 9.7058 14.6663 9.19709 14.6663 8.66666V7.99999C14.6663 6.49535 14.1572 5.03498 13.2219 3.85635C12.2866 2.67772 10.98 1.85014 9.51477 1.50819C8.0495 1.16624 6.51164 1.33002 5.15125 1.9729C3.79086 2.61579 2.68795 3.69996 2.02185 5.04914C1.35576 6.39832 1.16566 7.93315 1.48246 9.40407C1.79926 10.875 2.60433 12.1955 3.76677 13.1508C4.9292 14.1062 6.38064 14.6402 7.88506 14.6661C9.38949 14.692 10.8584 14.2082 12.053 13.2933" stroke="#15222C" stroke-width="1.33333" stroke-linecap="round" stroke-linejoin="round"/>
</svg>
