<svg width="40" height="40" viewBox="0 0 40 40" fill="none" xmlns="http://www.w3.org/2000/svg">
<path d="M33.333 11.6666H6.66634C4.82539 11.6666 3.33301 13.159 3.33301 15V31.6666C3.33301 33.5076 4.82539 35 6.66634 35H33.333C35.174 35 36.6663 33.5076 36.6663 31.6666V15C36.6663 13.159 35.174 11.6666 33.333 11.6666Z" stroke="white" stroke-width="3.33333" stroke-linecap="round" stroke-linejoin="round"/>
<path d="M26.6663 35V8.33333C26.6663 7.44928 26.3152 6.60143 25.69 5.97631C25.0649 5.35119 24.2171 5 23.333 5H16.6663C15.7823 5 14.9344 5.35119 14.3093 5.97631C13.6842 6.60143 13.333 7.44928 13.333 8.33333V35" stroke="white" stroke-width="3.33333" stroke-linecap="round" stroke-linejoin="round"/>
</svg>
