<svg width="16" height="16" viewBox="0 0 16 16" fill="none" xmlns="http://www.w3.org/2000/svg">
<path d="M7.99967 4.66667V2H1.33301V14H14.6663V4.66667H7.99967ZM3.99967 12.6667H2.66634V11.3333H3.99967V12.6667ZM3.99967 10H2.66634V8.66667H3.99967V10ZM3.99967 7.33333H2.66634V6H3.99967V7.33333ZM3.99967 4.66667H2.66634V3.33333H3.99967V4.66667ZM6.66634 12.6667H5.33301V11.3333H6.66634V12.6667ZM6.66634 10H5.33301V8.66667H6.66634V10ZM6.66634 7.33333H5.33301V6H6.66634V7.33333ZM6.66634 4.66667H5.33301V3.33333H6.66634V4.66667ZM13.333 12.6667H7.99967V11.3333H9.33301V10H7.99967V8.66667H9.33301V7.33333H7.99967V6H13.333V12.6667ZM11.9997 7.33333H10.6663V8.66667H11.9997V7.33333ZM11.9997 10H10.6663V11.3333H11.9997V10Z" fill="#15222C"/>
</svg>
