<svg width="15" height="15" viewBox="0 0 15 15" fill="none" xmlns="http://www.w3.org/2000/svg">
<path d="M7.5 9.375C8.53553 9.375 9.375 8.53553 9.375 7.5C9.375 6.46447 8.53553 5.625 7.5 5.625C6.46447 5.625 5.625 6.46447 5.625 7.5C5.625 8.53553 6.46447 9.375 7.5 9.375Z" stroke="#404040" stroke-linecap="round" stroke-linejoin="round"/>
<path d="M12.125 9.37503C12.0418 9.56354 12.017 9.77265 12.0537 9.9754C12.0905 10.1781 12.1872 10.3652 12.3312 10.5125L12.3688 10.55C12.485 10.6661 12.5772 10.804 12.6401 10.9557C12.703 11.1075 12.7354 11.2701 12.7354 11.4344C12.7354 11.5987 12.703 11.7613 12.6401 11.9131C12.5772 12.0648 12.485 12.2027 12.3688 12.3188C12.2527 12.435 12.1148 12.5272 11.9631 12.5901C11.8113 12.653 11.6486 12.6854 11.4844 12.6854C11.3201 12.6854 11.1574 12.653 11.0057 12.5901C10.854 12.5272 10.7161 12.435 10.6 12.3188L10.5625 12.2813C10.4152 12.1372 10.2281 12.0405 10.0254 12.0038C9.82262 11.967 9.61351 11.9918 9.425 12.075C9.24014 12.1543 9.08249 12.2858 8.97144 12.4535C8.86039 12.6212 8.8008 12.8177 8.8 13.0188V13.125C8.8 13.4566 8.6683 13.7745 8.43388 14.0089C8.19946 14.2433 7.88152 14.375 7.55 14.375C7.21848 14.375 6.90054 14.2433 6.66612 14.0089C6.4317 13.7745 6.3 13.4566 6.3 13.125V13.0688C6.29516 12.8619 6.2282 12.6613 6.10782 12.493C5.98744 12.3247 5.81921 12.1965 5.625 12.125C5.43649 12.0418 5.22738 12.017 5.02463 12.0538C4.82189 12.0905 4.6348 12.1872 4.4875 12.3313L4.45 12.3688C4.33391 12.485 4.19605 12.5772 4.0443 12.6401C3.89255 12.703 3.72989 12.7354 3.56562 12.7354C3.40136 12.7354 3.2387 12.703 3.08695 12.6401C2.9352 12.5772 2.79734 12.485 2.68125 12.3688C2.56503 12.2527 2.47283 12.1148 2.40993 11.9631C2.34702 11.8113 2.31464 11.6487 2.31464 11.4844C2.31464 11.3201 2.34702 11.1575 2.40993 11.0057C2.47283 10.854 2.56503 10.7161 2.68125 10.6L2.71875 10.5625C2.86284 10.4152 2.95949 10.2281 2.99625 10.0254C3.03301 9.82265 3.0082 9.61354 2.925 9.42503C2.84577 9.24017 2.71422 9.08252 2.54654 8.97147C2.37886 8.86043 2.18237 8.80083 1.98125 8.80003H1.875C1.54348 8.80003 1.22554 8.66833 0.991117 8.43391C0.756696 8.19949 0.625 7.88155 0.625 7.55003C0.625 7.21851 0.756696 6.90057 0.991117 6.66615C1.22554 6.43173 1.54348 6.30003 1.875 6.30003H1.93125C2.13812 6.29519 2.33875 6.22823 2.50706 6.10785C2.67537 5.98747 2.80357 5.81924 2.875 5.62503C2.9582 5.43652 2.98301 5.22741 2.94625 5.02466C2.90949 4.82192 2.81284 4.63483 2.66875 4.48753L2.63125 4.45003C2.51503 4.33394 2.42283 4.19608 2.35993 4.04433C2.29702 3.89258 2.26464 3.72992 2.26464 3.56566C2.26464 3.40139 2.29702 3.23873 2.35993 3.08698C2.42283 2.93523 2.51503 2.79737 2.63125 2.68128C2.74734 2.56506 2.8852 2.47286 3.03695 2.40996C3.1887 2.34705 3.35136 2.31467 3.51562 2.31467C3.67989 2.31467 3.84255 2.34705 3.9943 2.40996C4.14605 2.47286 4.28391 2.56506 4.4 2.68128L4.4375 2.71878C4.5848 2.86287 4.77188 2.95952 4.97463 2.99628C5.17738 3.03305 5.38649 3.00823 5.575 2.92503H5.625C5.80986 2.8458 5.96751 2.71425 6.07856 2.54657C6.18961 2.37889 6.2492 2.1824 6.25 1.98128V1.87503C6.25 1.54351 6.3817 1.22557 6.61612 0.991147C6.85054 0.756727 7.16848 0.625031 7.5 0.625031C7.83152 0.625031 8.14946 0.756727 8.38388 0.991147C8.6183 1.22557 8.75 1.54351 8.75 1.87503V1.93128C8.7508 2.1324 8.81039 2.32889 8.92144 2.49657C9.03249 2.66425 9.19014 2.7958 9.375 2.87503C9.56351 2.95823 9.77262 2.98305 9.97537 2.94628C10.1781 2.90952 10.3652 2.81287 10.5125 2.66878L10.55 2.63128C10.6661 2.51506 10.804 2.42286 10.9557 2.35996C11.1074 2.29705 11.2701 2.26467 11.4344 2.26467C11.5986 2.26467 11.7613 2.29705 11.9131 2.35996C12.0648 2.42286 12.2027 2.51506 12.3187 2.63128C12.435 2.74737 12.5272 2.88523 12.5901 3.03698C12.653 3.18873 12.6854 3.35139 12.6854 3.51566C12.6854 3.67992 12.653 3.84258 12.5901 3.99433C12.5272 4.14608 12.435 4.28394 12.3187 4.40003L12.2812 4.43753C12.1372 4.58483 12.0405 4.77192 12.0037 4.97466C11.967 5.17741 11.9918 5.38652 12.075 5.57503V5.62503C12.1542 5.80989 12.2858 5.96754 12.4535 6.07859C12.6211 6.18964 12.8176 6.24923 13.0187 6.25003H13.125C13.4565 6.25003 13.7745 6.38173 14.0089 6.61615C14.2433 6.85057 14.375 7.16851 14.375 7.50003C14.375 7.83155 14.2433 8.14949 14.0089 8.38391C13.7745 8.61833 13.4565 8.75003 13.125 8.75003H13.0687C12.8676 8.75083 12.6711 8.81043 12.5035 8.92147C12.3358 9.03252 12.2042 9.19017 12.125 9.37503V9.37503Z" stroke="#404040" stroke-linecap="round" stroke-linejoin="round"/>
</svg>
