<svg width="15" height="15" viewBox="0 0 15 15" fill="none" xmlns="http://www.w3.org/2000/svg">
<path d="M8.75 1.24994H3.75C3.41848 1.24994 3.10054 1.38163 2.86612 1.61606C2.6317 1.85048 2.5 2.16842 2.5 2.49994V12.4999C2.5 12.8315 2.6317 13.1494 2.86612 13.3838C3.10054 13.6182 3.41848 13.7499 3.75 13.7499H11.25C11.5815 13.7499 11.8995 13.6182 12.1339 13.3838C12.3683 13.1494 12.5 12.8315 12.5 12.4999V4.99994L8.75 1.24994Z" stroke="#3E4457" stroke-linecap="round" stroke-linejoin="round"/>
<path d="M8.75 1.24994V4.99994H12.5" stroke="#3E4457" stroke-linecap="round" stroke-linejoin="round"/>
<path d="M10 8.12506H5" stroke="#3E4457" stroke-linecap="round" stroke-linejoin="round"/>
<path d="M10 10.6249H5" stroke="#3E4457" stroke-linecap="round" stroke-linejoin="round"/>
<path d="M6.25 5.625H5.625H5" stroke="#3E4457" stroke-linecap="round" stroke-linejoin="round"/>
</svg>
