<svg width="15" height="15" viewBox="0 0 15 15" fill="none" xmlns="http://www.w3.org/2000/svg">
<path d="M13.125 3.7507H12.5V3.1257C12.5 2.95994 12.4342 2.80097 12.3169 2.68376C12.1997 2.56655 12.0408 2.5007 11.875 2.5007C11.7092 2.5007 11.5503 2.56655 11.4331 2.68376C11.3158 2.80097 11.25 2.95994 11.25 3.1257V3.7507H10.625C10.4592 3.7507 10.3003 3.81655 10.1831 3.93376C10.0658 4.05097 10 4.20994 10 4.3757C10 4.54146 10.0658 4.70043 10.1831 4.81764C10.3003 4.93485 10.4592 5.0007 10.625 5.0007H11.25V5.6257C11.25 5.79146 11.3158 5.95043 11.4331 6.06764C11.5503 6.18485 11.7092 6.2507 11.875 6.2507C12.0408 6.2507 12.1997 6.18485 12.3169 6.06764C12.4342 5.95043 12.5 5.79146 12.5 5.6257V5.0007H13.125C13.2908 5.0007 13.4497 4.93485 13.5669 4.81764C13.6842 4.70043 13.75 4.54146 13.75 4.3757C13.75 4.20994 13.6842 4.05097 13.5669 3.93376C13.4497 3.81655 13.2908 3.7507 13.125 3.7507Z" fill="#404040"/>
<path d="M6.25 6.875C6.74445 6.875 7.2278 6.72838 7.63893 6.45368C8.05005 6.17897 8.37048 5.78853 8.5597 5.33171C8.74892 4.87489 8.79843 4.37223 8.70196 3.88728C8.6055 3.40232 8.3674 2.95687 8.01777 2.60723C7.66814 2.2576 7.22268 2.0195 6.73773 1.92304C6.25277 1.82657 5.75011 1.87608 5.29329 2.0653C4.83648 2.25452 4.44603 2.57495 4.17133 2.98608C3.89662 3.3972 3.75 3.88055 3.75 4.375C3.75 5.03804 4.01339 5.67393 4.48223 6.14277C4.95107 6.61161 5.58696 6.875 6.25 6.875ZM6.25 3.125C6.49723 3.125 6.7389 3.19831 6.94446 3.33566C7.15002 3.47302 7.31024 3.66824 7.40485 3.89665C7.49946 4.12505 7.52421 4.37639 7.47598 4.61886C7.42775 4.86134 7.3087 5.08407 7.13388 5.25888C6.95907 5.4337 6.73634 5.55275 6.49386 5.60098C6.25139 5.64921 6.00005 5.62446 5.77165 5.52985C5.54324 5.43524 5.34801 5.27503 5.21066 5.06946C5.07331 4.8639 5 4.62223 5 4.375C5 4.04348 5.1317 3.72554 5.36612 3.49112C5.60054 3.2567 5.91848 3.125 6.25 3.125Z" fill="#404040"/>
<path d="M6.25 8.1257C5.08968 8.1257 3.97688 8.58664 3.15641 9.40711C2.33594 10.2276 1.875 11.3404 1.875 12.5007C1.875 12.6665 1.94085 12.8254 2.05806 12.9426C2.17527 13.0599 2.33424 13.1257 2.5 13.1257C2.66576 13.1257 2.82473 13.0599 2.94194 12.9426C3.05915 12.8254 3.125 12.6665 3.125 12.5007C3.125 11.6719 3.45424 10.877 4.04029 10.291C4.62634 9.70494 5.4212 9.3757 6.25 9.3757C7.0788 9.3757 7.87366 9.70494 8.45971 10.291C9.04576 10.877 9.375 11.6719 9.375 12.5007C9.375 12.6665 9.44085 12.8254 9.55806 12.9426C9.67527 13.0599 9.83424 13.1257 10 13.1257C10.1658 13.1257 10.3247 13.0599 10.4419 12.9426C10.5592 12.8254 10.625 12.6665 10.625 12.5007C10.625 11.3404 10.1641 10.2276 9.34359 9.40711C8.52312 8.58664 7.41032 8.1257 6.25 8.1257Z" fill="#404040"/>
</svg>
