<svg width="15" height="15" viewBox="0 0 15 15" fill="none" xmlns="http://www.w3.org/2000/svg">
<path d="M13.125 9.375C13.125 9.70652 12.9933 10.0245 12.7589 10.2589C12.5245 10.4933 12.2065 10.625 11.875 10.625H4.375L1.875 13.125V3.125C1.875 2.79348 2.0067 2.47554 2.24112 2.24112C2.47554 2.0067 2.79348 1.875 3.125 1.875H11.875C12.2065 1.875 12.5245 2.0067 12.7589 2.24112C12.9933 2.47554 13.125 2.79348 13.125 3.125V9.375Z" stroke="#3E4457" stroke-linecap="round" stroke-linejoin="round"/>
<path d="M3.41357 6.53717H3.70654V6.60602C3.70654 6.69196 3.71045 6.7608 3.71826 6.81256C3.72607 6.86432 3.73926 6.90485 3.75781 6.93414C3.77734 6.96344 3.80322 6.98444 3.83545 6.99713C3.86865 7.00983 3.91064 7.0191 3.96143 7.02496C3.99854 7.02985 4.05322 7.03326 4.12549 7.03522C4.19873 7.03619 4.29004 7.03668 4.39941 7.03668C4.51465 7.03668 4.604 7.02936 4.66748 7.01471C4.73096 7.00006 4.77734 6.97662 4.80664 6.9444C4.82227 6.9278 4.8335 6.8985 4.84033 6.85651C4.84814 6.81451 4.85205 6.75641 4.85205 6.68219C4.85205 6.60797 4.84912 6.54938 4.84326 6.50641C4.8374 6.46246 4.82666 6.42877 4.81104 6.40533C4.79639 6.3819 4.77539 6.36627 4.74805 6.35846C4.7207 6.35065 4.68506 6.34528 4.64111 6.34235L3.98779 6.29108C3.88525 6.28326 3.79932 6.26715 3.72998 6.24274C3.66064 6.21832 3.60449 6.18317 3.56152 6.13727C3.51953 6.09039 3.48926 6.03131 3.4707 5.96002C3.45215 5.88776 3.44287 5.80035 3.44287 5.69781C3.44287 5.52496 3.47119 5.38971 3.52783 5.29205C3.58447 5.19342 3.67578 5.13141 3.80176 5.10602C3.84082 5.09821 3.89404 5.09235 3.96143 5.08844C4.02979 5.08356 4.11426 5.08112 4.21484 5.08112H4.29102C4.40527 5.08112 4.5 5.08356 4.5752 5.08844C4.65137 5.09332 4.71484 5.10162 4.76562 5.11334C4.81641 5.12506 4.8584 5.1402 4.8916 5.15875C4.92578 5.17731 4.95898 5.20026 4.99121 5.2276C5.03418 5.26471 5.06641 5.31696 5.08789 5.38434C5.11035 5.45172 5.12158 5.53424 5.12158 5.6319C5.12158 5.65924 5.12109 5.68512 5.12012 5.70953C5.11914 5.73297 5.11816 5.75055 5.11719 5.76227H4.82568V5.6817C4.82568 5.6153 4.82275 5.56305 4.81689 5.52496C4.81104 5.48688 4.80078 5.45807 4.78613 5.43854C4.77148 5.41803 4.75146 5.40436 4.72607 5.39752C4.70166 5.38971 4.6709 5.38287 4.63379 5.37701C4.55859 5.3653 4.41699 5.35944 4.20898 5.35944C3.99512 5.35944 3.86426 5.38141 3.81641 5.42535C3.79102 5.44781 3.77197 5.48248 3.75928 5.52936C3.74756 5.57623 3.7417 5.63336 3.7417 5.70074C3.7417 5.75934 3.74561 5.80817 3.75342 5.84723C3.76221 5.88531 3.77441 5.9151 3.79004 5.93658V5.93512C3.80664 5.95465 3.83057 5.97076 3.86182 5.98346C3.89307 5.99518 3.93359 6.0025 3.9834 6.00543L4.6499 6.0611C4.74268 6.06891 4.8208 6.08551 4.88428 6.1109C4.94775 6.13531 4.99902 6.17096 5.03809 6.21783C5.07715 6.26373 5.10498 6.32184 5.12158 6.39215C5.13916 6.46149 5.14795 6.54449 5.14795 6.64117C5.14795 6.71442 5.14551 6.7774 5.14062 6.83014C5.13574 6.8819 5.12842 6.92731 5.11865 6.96637C5.10889 7.00446 5.09619 7.03766 5.08057 7.06598C5.06494 7.0943 5.04639 7.12164 5.0249 7.14801C4.99561 7.18024 4.96484 7.20709 4.93262 7.22858C4.90039 7.24908 4.85889 7.26569 4.80811 7.27838C4.75732 7.29108 4.69287 7.29987 4.61475 7.30475C4.5376 7.31061 4.43945 7.31354 4.32031 7.31354H4.21484C4.11426 7.31354 4.02979 7.3111 3.96143 7.30621C3.89404 7.30231 3.83643 7.29498 3.78857 7.28424C3.7417 7.2735 3.70166 7.25934 3.66846 7.24176C3.63623 7.22321 3.60547 7.20026 3.57617 7.17291H3.57764C3.521 7.12506 3.47949 7.0611 3.45312 6.98102C3.42676 6.89996 3.41357 6.79645 3.41357 6.67047V6.53717ZM5.61963 7.28571V5.10748H6.05322L6.76074 6.94586C6.87793 6.63824 6.99463 6.3316 7.11084 6.02594C7.22705 5.72028 7.34375 5.41412 7.46094 5.10748H7.89746V7.28571H7.60742V5.48981C7.49219 5.79156 7.37793 6.09137 7.26465 6.38922C7.15137 6.6861 7.0376 6.98492 6.92334 7.28571H6.59375L5.90967 5.49127V7.28571H5.61963ZM8.36475 6.53717H8.65771V6.60602C8.65771 6.69196 8.66162 6.7608 8.66943 6.81256C8.67725 6.86432 8.69043 6.90485 8.70898 6.93414C8.72852 6.96344 8.75439 6.98444 8.78662 6.99713C8.81982 7.00983 8.86182 7.0191 8.9126 7.02496C8.94971 7.02985 9.00439 7.03326 9.07666 7.03522C9.1499 7.03619 9.24121 7.03668 9.35059 7.03668C9.46582 7.03668 9.55518 7.02936 9.61865 7.01471C9.68213 7.00006 9.72852 6.97662 9.75781 6.9444C9.77344 6.9278 9.78467 6.8985 9.7915 6.85651C9.79932 6.81451 9.80322 6.75641 9.80322 6.68219C9.80322 6.60797 9.80029 6.54938 9.79443 6.50641C9.78857 6.46246 9.77783 6.42877 9.76221 6.40533C9.74756 6.3819 9.72656 6.36627 9.69922 6.35846C9.67188 6.35065 9.63623 6.34528 9.59229 6.34235L8.93896 6.29108C8.83643 6.28326 8.75049 6.26715 8.68115 6.24274C8.61182 6.21832 8.55566 6.18317 8.5127 6.13727C8.4707 6.09039 8.44043 6.03131 8.42188 5.96002C8.40332 5.88776 8.39404 5.80035 8.39404 5.69781C8.39404 5.52496 8.42236 5.38971 8.479 5.29205C8.53564 5.19342 8.62695 5.13141 8.75293 5.10602C8.79199 5.09821 8.84521 5.09235 8.9126 5.08844C8.98096 5.08356 9.06543 5.08112 9.16602 5.08112H9.24219C9.35645 5.08112 9.45117 5.08356 9.52637 5.08844C9.60254 5.09332 9.66602 5.10162 9.7168 5.11334C9.76758 5.12506 9.80957 5.1402 9.84277 5.15875C9.87695 5.17731 9.91016 5.20026 9.94238 5.2276C9.98535 5.26471 10.0176 5.31696 10.0391 5.38434C10.0615 5.45172 10.0728 5.53424 10.0728 5.6319C10.0728 5.65924 10.0723 5.68512 10.0713 5.70953C10.0703 5.73297 10.0693 5.75055 10.0684 5.76227H9.77686V5.6817C9.77686 5.6153 9.77393 5.56305 9.76807 5.52496C9.76221 5.48688 9.75195 5.45807 9.7373 5.43854C9.72266 5.41803 9.70264 5.40436 9.67725 5.39752C9.65283 5.38971 9.62207 5.38287 9.58496 5.37701C9.50977 5.3653 9.36816 5.35944 9.16016 5.35944C8.94629 5.35944 8.81543 5.38141 8.76758 5.42535C8.74219 5.44781 8.72314 5.48248 8.71045 5.52936C8.69873 5.57623 8.69287 5.63336 8.69287 5.70074C8.69287 5.75934 8.69678 5.80817 8.70459 5.84723C8.71338 5.88531 8.72559 5.9151 8.74121 5.93658V5.93512C8.75781 5.95465 8.78174 5.97076 8.81299 5.98346C8.84424 5.99518 8.88477 6.0025 8.93457 6.00543L9.60107 6.0611C9.69385 6.06891 9.77197 6.08551 9.83545 6.1109C9.89893 6.13531 9.9502 6.17096 9.98926 6.21783C10.0283 6.26373 10.0562 6.32184 10.0728 6.39215C10.0903 6.46149 10.0991 6.54449 10.0991 6.64117C10.0991 6.71442 10.0967 6.7774 10.0918 6.83014C10.0869 6.8819 10.0796 6.92731 10.0698 6.96637C10.0601 7.00446 10.0474 7.03766 10.0317 7.06598C10.0161 7.0943 9.99756 7.12164 9.97607 7.14801C9.94678 7.18024 9.91602 7.20709 9.88379 7.22858C9.85156 7.24908 9.81006 7.26569 9.75928 7.27838C9.7085 7.29108 9.64404 7.29987 9.56592 7.30475C9.48877 7.31061 9.39062 7.31354 9.27148 7.31354H9.16602C9.06543 7.31354 8.98096 7.3111 8.9126 7.30621C8.84521 7.30231 8.7876 7.29498 8.73975 7.28424C8.69287 7.2735 8.65283 7.25934 8.61963 7.24176C8.5874 7.22321 8.55664 7.20026 8.52734 7.17291H8.52881C8.47217 7.12506 8.43066 7.0611 8.4043 6.98102C8.37793 6.89996 8.36475 6.79645 8.36475 6.67047V6.53717Z" fill="#3E4457"/>
</svg>
