<svg width="32" height="32" viewBox="0 0 32 32" fill="none" xmlns="http://www.w3.org/2000/svg">
<circle cx="16" cy="16" r="16" fill="#F5F5F5"/>
<path d="M22 14.6667C22 19.3334 16 23.3334 16 23.3334C16 23.3334 10 19.3334 10 14.6667C10 13.0754 10.6321 11.5493 11.7574 10.4241C12.8826 9.29889 14.4087 8.66675 16 8.66675C17.5913 8.66675 19.1174 9.29889 20.2426 10.4241C21.3679 11.5493 22 13.0754 22 14.6667Z" stroke="#FD0A50" stroke-linecap="round" stroke-linejoin="round"/>
<path d="M16 16.6667C17.1046 16.6667 18 15.7713 18 14.6667C18 13.5622 17.1046 12.6667 16 12.6667C14.8954 12.6667 14 13.5622 14 14.6667C14 15.7713 14.8954 16.6667 16 16.6667Z" stroke="#FD0A50" stroke-linecap="round" stroke-linejoin="round"/>
</svg>
