<svg width="26" height="26" viewBox="0 0 26 26" fill="none" xmlns="http://www.w3.org/2000/svg">
<circle cx="13.0004" cy="12.9999" r="8.5" transform="rotate(45 13.0004 12.9999)" stroke="#1E88E5"/>
<path d="M16.5359 15.3568L14.1789 12.9998L16.5359 10.6428C16.8612 10.3175 16.8618 9.79011 16.5359 9.46424C16.21 9.13838 15.6826 9.13897 15.3574 9.46424L13.0004 11.8212L10.6434 9.46424C10.3175 9.13838 9.7901 9.13897 9.46483 9.46424C9.13956 9.78951 9.13897 10.3169 9.46483 10.6428L11.8218 12.9998L9.46483 15.3568C9.13956 15.6821 9.13897 16.2094 9.46483 16.5353C9.7907 16.8612 10.3181 16.8606 10.6434 16.5353L13.0004 14.1783L15.3574 16.5353C15.6832 16.8612 16.2106 16.8606 16.5359 16.5353C16.8612 16.21 16.8618 15.6826 16.5359 15.3568Z" fill="#575757"/>
</svg>
