<svg width="15" height="15" viewBox="0 0 15 15" fill="none" xmlns="http://www.w3.org/2000/svg">
<g clip-path="url(#clip0)">
<path d="M8.87424 7.51217L14.715 1.67129C15.0951 1.29136 15.0951 0.677076 14.715 0.297151C14.335 -0.0827742 13.7207 -0.0827742 13.3408 0.297151L7.49993 6.13803L1.65922 0.297151C1.27911 -0.0827742 0.665003 -0.0827742 0.285078 0.297151C-0.0950259 0.677076 -0.0950259 1.29136 0.285078 1.67129L6.12579 7.51217L0.285078 13.353C-0.0950259 13.733 -0.0950259 14.3473 0.285078 14.7272C0.474418 14.9167 0.723371 15.0119 0.972147 15.0119C1.22092 15.0119 1.4697 14.9167 1.65922 14.7272L7.49993 8.8863L13.3408 14.7272C13.5303 14.9167 13.7791 15.0119 14.0279 15.0119C14.2767 15.0119 14.5254 14.9167 14.715 14.7272C15.0951 14.3473 15.0951 13.733 14.715 13.353L8.87424 7.51217Z" fill="#3E4457"/>
</g>
<defs>
<clipPath id="clip0">
<rect width="15" height="15" fill="white"/>
</clipPath>
</defs>
</svg>
