<svg width="16" height="11" viewBox="0 0 16 11" fill="none" xmlns="http://www.w3.org/2000/svg">
<path d="M11.9996 10.0018V9.00158C11.9996 8.47105 11.7888 7.96225 11.4137 7.58711C11.0385 7.21197 10.5297 7.00122 9.9992 7.00122H5.99843C5.4679 7.00122 4.95909 7.21197 4.58395 7.58711C4.2088 7.96225 3.99805 8.47105 3.99805 9.00158V10.0018" stroke="#1E88E5" stroke-linecap="round" stroke-linejoin="round"/>
<path d="M7.99843 5.00077C9.10321 5.00077 9.99881 4.10517 9.99881 3.00038C9.99881 1.8956 9.10321 1 7.99843 1C6.89365 1 5.99805 1.8956 5.99805 3.00038C5.99805 4.10517 6.89365 5.00077 7.99843 5.00077Z" stroke="#1E88E5" stroke-linecap="round" stroke-linejoin="round"/>
<path d="M15.0003 10.0017V9.00153C15 8.55831 14.8524 8.12775 14.5809 7.77746C14.3093 7.42716 13.9291 7.17697 13.5 7.06616" stroke="#1E88E5" stroke-linecap="round" stroke-linejoin="round"/>
<path d="M11.5 1.06494C11.9303 1.17511 12.3117 1.42536 12.584 1.77623C12.8564 2.1271 13.0042 2.55864 13.0042 3.00281C13.0042 3.44698 12.8564 3.87852 12.584 4.22939C12.3117 4.58026 11.9303 4.83051 11.5 4.94068" stroke="#1E88E5" stroke-linecap="round" stroke-linejoin="round"/>
<path d="M1.00069 10.0018V8.97943C1.00102 8.5264 1.14854 8.08631 1.42009 7.72826C1.69163 7.37021 2.07183 7.11448 2.50098 7.00122" stroke="#1E88E5" stroke-linecap="round" stroke-linejoin="round"/>
<path d="M11.5 1.06494C11.9303 1.17511 12.3117 1.42536 12.584 1.77623C12.8564 2.1271 13.0042 2.55864 13.0042 3.00281C13.0042 3.44698 12.8564 3.87852 12.584 4.22939C12.3117 4.58026 11.9303 4.83051 11.5 4.94068" stroke="#1E88E5" stroke-linecap="round" stroke-linejoin="round"/>
<path d="M4.49512 4.94092C4.06483 4.83075 3.68344 4.5805 3.41109 4.22963C3.13874 3.87875 2.99091 3.44722 2.99091 3.00305C2.99091 2.55888 3.13874 2.12734 3.41109 1.77647C3.68344 1.42559 4.06483 1.17535 4.49512 1.06517" stroke="#1E88E5" stroke-linecap="round" stroke-linejoin="round"/>
</svg>
