<svg width="12" height="15" viewBox="0 0 12 15" fill="none" xmlns="http://www.w3.org/2000/svg">
<path fill-rule="evenodd" clip-rule="evenodd" d="M0.600035 0C0.271125 0 2.99119e-05 0.267511 2.99119e-05 0.592118V3.35535C2.99119e-05 3.67994 0.271104 3.94747 0.600035 3.94747H3.40008C3.72899 3.94747 4.00008 3.67996 4.00008 3.35535V0.592118C4.00008 0.267532 3.72901 0 3.40008 0H0.600035ZM0.600035 0.394706H3.40008C3.51435 0.394706 3.60011 0.479343 3.60011 0.592112V3.35535C3.60011 3.46812 3.51435 3.55275 3.40008 3.55275H0.600035C0.485761 3.55275 0.399999 3.46812 0.399999 3.35535V0.592112C0.399999 0.47934 0.485764 0.394706 0.600035 0.394706ZM3.13124 1.07855C3.08012 1.07855 3.02899 1.09773 2.98987 1.13633L1.71721 2.39262L1.01027 1.69449C0.931924 1.61718 0.805755 1.61718 0.727412 1.69449C0.649069 1.7718 0.649069 1.8962 0.727412 1.97363L1.57586 2.81128C1.63465 2.86929 1.72006 2.88348 1.79228 2.85441C1.81631 2.84476 1.83904 2.83058 1.85872 2.81128L3.27276 1.41538C3.3511 1.33806 3.3511 1.21355 3.27276 1.13624C3.23353 1.09764 3.18252 1.07846 3.13139 1.07846L3.13124 1.07855ZM5.59999 1.57891C5.3784 1.57891 5.20003 1.75493 5.20003 1.97362C5.20003 2.19231 5.37839 2.36832 5.59999 2.36832H11.6C11.8216 2.36832 12 2.19231 12 1.97362C12 1.75493 11.8216 1.57891 11.6 1.57891H5.59999ZM0.600005 5.52626C0.271095 5.52626 0 5.79378 0 6.11838V8.88162C0 9.20621 0.271074 9.47374 0.600005 9.47374H3.40005C3.72896 9.47374 4.00005 9.20623 4.00005 8.88162V6.11838C4.00005 5.7938 3.72898 5.52626 3.40005 5.52626H0.600005ZM0.600005 5.92097H3.40005C3.51432 5.92097 3.60008 6.00561 3.60008 6.11838V8.88161C3.60008 8.99438 3.51432 9.07902 3.40005 9.07902H0.600005C0.485731 9.07902 0.399969 8.99438 0.399969 8.88161V6.11838C0.399969 6.0056 0.485734 5.92097 0.600005 5.92097ZM5.59999 7.10518C5.3784 7.10518 5.20003 7.28119 5.20003 7.49988C5.20003 7.71857 5.37839 7.89459 5.59999 7.89459H11.6C11.8216 7.89459 12 7.71857 12 7.49988C12 7.28119 11.8216 7.10518 11.6 7.10518H5.59999ZM0.600005 11.0525C0.271095 11.0525 0 11.32 0 11.6446V14.4079C0 14.7325 0.271074 15 0.600005 15H3.40005C3.72896 15 4.00005 14.7325 4.00005 14.4079V11.6446C4.00005 11.3201 3.72898 11.0525 3.40005 11.0525H0.600005ZM0.600005 11.4472H3.40005C3.51432 11.4472 3.60008 11.5319 3.60008 11.6446V14.4079C3.60008 14.5206 3.51432 14.6053 3.40005 14.6053H0.600005C0.485731 14.6053 0.399969 14.5206 0.399969 14.4079V11.6446C0.399969 11.5319 0.485734 11.4472 0.600005 11.4472ZM5.59999 12.6314C5.3784 12.6314 5.20003 12.8075 5.20003 13.0261C5.20003 13.2448 5.37839 13.4209 5.59999 13.4209H11.6C11.8216 13.4209 12 13.2448 12 13.0261C12 12.8075 11.8216 12.6314 11.6 12.6314H5.59999Z" fill="#E89900"/>
</svg>
