<svg width="16" height="16" viewBox="0 0 16 16" fill="none" xmlns="http://www.w3.org/2000/svg">
<path d="M14.8966 13.5593H10.2069C9.81267 13.5593 9.44843 13.7661 9.25138 14.1017C9.05415 14.4372 9.05415 14.8508 9.25138 15.1865C9.44843 15.5221 9.81271 15.7288 10.2069 15.7288H14.8966C15.2908 15.7288 15.6551 15.5221 15.8521 15.1865C16.0492 14.8507 16.0492 14.4372 15.8521 14.1017C15.6551 13.7661 15.2908 13.5593 14.8966 13.5593Z" fill="white"/>
<path d="M14.8966 9.22046H10.2069C9.81267 9.22046 9.44843 9.42721 9.25138 9.76298C9.05415 10.0986 9.05415 10.5121 9.25138 10.8476C9.44843 11.1832 9.81271 11.39 10.2069 11.39H14.8966C15.2908 11.39 15.6551 11.1832 15.8521 10.8476C16.0492 10.5121 16.0492 10.0985 15.8521 9.76298C15.6551 9.42721 15.2908 9.22046 14.8966 9.22046Z" fill="white"/>
<rect x="0.75" y="0.75" width="14.5" height="5.7" rx="2.25" stroke="white" stroke-width="1.5"/>
<rect x="0.75" y="9.55005" width="5.7" height="5.7" rx="2.25" stroke="white" stroke-width="1.5"/>
</svg>
