<svg width="36" height="36" viewBox="0 0 36 36" fill="none" xmlns="http://www.w3.org/2000/svg">
<circle cx="18" cy="18" r="18" fill="#FF005C" fill-opacity="0.2"/>
<path d="M24.9655 23.7119H20.5689C20.1993 23.7119 19.8578 23.9057 19.6731 24.2203C19.4882 24.5349 19.4882 24.9226 19.6731 25.2374C19.8578 25.552 20.1994 25.7458 20.5689 25.7458H24.9655C25.3351 25.7458 25.6766 25.552 25.8613 25.2374C26.046 24.9226 26.046 24.5349 25.8613 24.2203C25.6766 23.9057 25.3351 23.7119 24.9655 23.7119Z" fill="#D80303"/>
<path d="M24.9655 19.644H20.5689C20.1993 19.644 19.8578 19.8379 19.6731 20.1527C19.4882 20.4673 19.4882 20.8549 19.6731 21.1695C19.8578 21.4841 20.1994 21.6779 20.5689 21.6779H24.9655C25.3351 21.6779 25.6766 21.4841 25.8613 21.1695C26.046 20.8549 26.046 20.4672 25.8613 20.1527C25.6766 19.8379 25.3351 19.644 24.9655 19.644Z" fill="#D80303"/>
<rect x="11.75" y="11.75" width="13.5" height="5.25" rx="2.25" stroke="#D80303" stroke-width="1.5"/>
<rect x="11.75" y="20" width="5.25" height="5.25" rx="2.25" stroke="#D80303" stroke-width="1.5"/>
</svg>
