<svg width="20" height="19" viewBox="0 0 20 19" fill="none" xmlns="http://www.w3.org/2000/svg">
<rect width="20" height="19" rx="4" fill="#FF005C"/>
<path d="M6.77881 14V12.5767C6.77881 12.2043 6.80924 11.8927 6.87012 11.6421C6.93099 11.3879 7.02409 11.1748 7.14941 11.0029C7.27832 10.8275 7.44303 10.6842 7.64355 10.5732C7.84408 10.4622 8.08398 10.3602 8.36328 10.2671C8.64258 10.174 8.96484 10.0827 9.33008 9.99316C9.69531 9.90007 10.1053 9.78727 10.5601 9.65479C10.8394 9.57959 11.0524 9.50798 11.1992 9.43994C11.3496 9.36833 11.457 9.28239 11.5215 9.18213C11.5859 9.07829 11.6217 8.94938 11.6289 8.79541C11.6396 8.64144 11.645 8.44271 11.645 8.19922C11.645 8.02376 11.6396 7.87695 11.6289 7.75879C11.6217 7.63704 11.6074 7.53678 11.5859 7.45801C11.5645 7.37565 11.534 7.30941 11.4946 7.25928C11.4588 7.20915 11.4141 7.16618 11.3604 7.13037C11.2565 7.06234 11.0542 7.01221 10.7534 6.97998C10.4562 6.94417 10.0391 6.92627 9.50195 6.92627C8.77507 6.92627 8.31852 7.00326 8.13232 7.15723C7.96045 7.29688 7.87451 7.61735 7.87451 8.11865V8.68262H6.77881V8.06494C6.77881 7.26644 6.97396 6.70605 7.36426 6.38379C7.5612 6.22266 7.8387 6.10449 8.19678 6.0293C8.55843 5.9541 9.01318 5.9165 9.56104 5.9165C9.85824 5.9165 10.1178 5.92008 10.3398 5.92725C10.5618 5.93083 10.7552 5.94157 10.9199 5.95947C11.0846 5.9738 11.2243 5.99528 11.3389 6.02393C11.457 6.04899 11.5591 6.08122 11.645 6.12061C11.8527 6.21729 12.0246 6.32113 12.1606 6.43213C12.2967 6.53955 12.4059 6.67383 12.4883 6.83496C12.5706 6.99609 12.6279 7.19303 12.6602 7.42578C12.696 7.65495 12.7139 7.93962 12.7139 8.27979C12.7139 8.66292 12.6888 8.98161 12.6387 9.23584C12.5885 9.48649 12.5008 9.69775 12.3755 9.86963C12.2537 10.0415 12.0854 10.1829 11.8706 10.2939C11.6593 10.4049 11.3926 10.5088 11.0703 10.6055C10.8913 10.6592 10.6997 10.7147 10.4956 10.772C10.2915 10.8257 10.0856 10.8812 9.87793 10.9385C9.67025 10.9922 9.46615 11.0477 9.26562 11.105C9.06868 11.1623 8.88607 11.2196 8.71777 11.2769C8.55306 11.3341 8.41162 11.3914 8.29346 11.4487C8.17529 11.5024 8.09294 11.5562 8.04639 11.6099C7.9318 11.7459 7.87451 11.9518 7.87451 12.2275V12.9741H12.7139V14H6.77881Z" fill="white"/>
</svg>
