<svg width="20" height="19" viewBox="0 0 20 19" fill="none" xmlns="http://www.w3.org/2000/svg">
<rect width="20" height="19" rx="4" fill="#2196F3"/>
<path d="M6.75732 11.2124H7.83154V12.0127C7.83154 12.2347 7.85482 12.4155 7.90137 12.5552C7.9515 12.6948 8.04639 12.804 8.18604 12.8828C8.32568 12.9616 8.52262 13.0153 8.77686 13.0439C9.03467 13.0726 9.37126 13.0869 9.78662 13.0869C10.1626 13.0869 10.4634 13.078 10.689 13.0601C10.9181 13.0386 11.0954 13.0028 11.2207 12.9526C11.3496 12.9025 11.4391 12.8327 11.4893 12.7432C11.543 12.6501 11.5806 12.5337 11.6021 12.394C11.6235 12.2329 11.6343 11.9447 11.6343 11.5293C11.6343 11.2965 11.6128 11.1086 11.5698 10.9653C11.5304 10.8221 11.4624 10.7129 11.3657 10.6377C11.269 10.5589 11.1401 10.507 10.979 10.4819C10.8179 10.4533 10.6191 10.439 10.3828 10.439H9.08838V9.43457H10.2754C10.7588 9.43457 11.0846 9.35579 11.2529 9.19824V9.20361C11.4176 9.0389 11.5 8.6862 11.5 8.14551C11.5 7.96289 11.4964 7.81429 11.4893 7.69971C11.4821 7.58512 11.4678 7.49202 11.4463 7.42041C11.4284 7.34521 11.4033 7.28792 11.3711 7.24854C11.3424 7.20557 11.3066 7.16618 11.2637 7.13037C11.1813 7.06592 11.0112 7.01758 10.7534 6.98535C10.4956 6.95312 10.1196 6.93701 9.62549 6.93701C9.271 6.93701 8.98454 6.95133 8.76611 6.97998C8.55127 7.00505 8.38477 7.0516 8.2666 7.11963C8.14844 7.18766 8.06966 7.28076 8.03027 7.39893C7.99089 7.51709 7.97119 7.66748 7.97119 7.8501V8.66113H6.89697V7.87158C6.89697 7.52425 6.9471 7.22705 7.04736 6.97998C7.14762 6.72933 7.30518 6.52702 7.52002 6.37305C7.73844 6.21549 8.01953 6.10091 8.36328 6.0293C8.70703 5.9541 9.12061 5.9165 9.604 5.9165C9.91911 5.9165 10.1895 5.92008 10.415 5.92725C10.6406 5.93441 10.834 5.94694 10.9951 5.96484C11.1562 5.98275 11.2941 6.00781 11.4087 6.04004C11.5233 6.06868 11.6289 6.10628 11.7256 6.15283C11.8796 6.23161 12.012 6.32113 12.123 6.42139C12.234 6.52165 12.3236 6.64697 12.3916 6.79736C12.4632 6.94417 12.5151 7.12321 12.5474 7.33447C12.5796 7.54574 12.5957 7.79997 12.5957 8.09717C12.5957 8.38721 12.5796 8.63428 12.5474 8.83838C12.5151 9.0389 12.465 9.20898 12.397 9.34863C12.3325 9.4847 12.2484 9.5957 12.1445 9.68164C12.0443 9.764 11.9225 9.83203 11.7793 9.88574C11.944 9.93945 12.0854 10.0111 12.2036 10.1006C12.3254 10.1865 12.4238 10.2975 12.499 10.4336C12.5742 10.5697 12.6297 10.7344 12.6655 10.9277C12.7013 11.1211 12.7192 11.3503 12.7192 11.6152C12.7192 11.9697 12.7013 12.2741 12.6655 12.5283C12.6297 12.7826 12.5706 12.9992 12.4883 13.1782C12.4095 13.3537 12.3039 13.4987 12.1714 13.6133C12.0425 13.7243 11.8849 13.8174 11.6987 13.8926C11.312 14.0286 10.6818 14.0967 9.80811 14.0967C9.38558 14.0967 9.03646 14.0877 8.76074 14.0698C8.48861 14.0555 8.27197 14.0286 8.11084 13.9893C7.95687 13.9499 7.81543 13.8997 7.68652 13.8389C7.5612 13.778 7.4502 13.701 7.35352 13.6079H7.35889C7.1512 13.4146 6.99902 13.1854 6.90234 12.9204C6.80566 12.6554 6.75732 12.3242 6.75732 11.9268V11.2124Z" fill="white"/>
</svg>
