<svg width="20" height="19" viewBox="0 0 20 19" fill="none" xmlns="http://www.w3.org/2000/svg">
<rect width="20" height="19" rx="4" fill="#1BD741"/>
<path d="M6.73047 11.5132H7.81006V12.1309C7.81006 12.4997 7.91211 12.7503 8.11621 12.8828H8.11084C8.34359 13.0189 8.85742 13.0869 9.65234 13.0869H9.9209C10.1429 13.0869 10.3255 13.0798 10.4688 13.0654C10.6156 13.0511 10.7373 13.0278 10.834 12.9956C10.9342 12.9598 11.0184 12.9168 11.0864 12.8667C11.158 12.813 11.2279 12.7485 11.2959 12.6733C11.3317 12.634 11.3604 12.5892 11.3818 12.5391C11.4069 12.4889 11.4266 12.4263 11.4409 12.3511C11.4552 12.2723 11.466 12.1774 11.4731 12.0664C11.4803 11.9554 11.4839 11.8193 11.4839 11.6582V11.3037C11.4839 11.1104 11.4803 10.9474 11.4731 10.8149C11.4696 10.6789 11.4606 10.5607 11.4463 10.4604C11.4355 10.3602 11.4194 10.276 11.3979 10.208C11.3765 10.1364 11.3514 10.0684 11.3228 10.0039C11.2726 9.90007 11.2082 9.81413 11.1294 9.74609C11.0542 9.67448 10.9521 9.61719 10.8232 9.57422C10.6979 9.53125 10.5422 9.50081 10.356 9.48291C10.1733 9.46501 9.95312 9.45605 9.69531 9.45605C9.35156 9.45605 9.06689 9.4668 8.84131 9.48828C8.6193 9.50618 8.44206 9.54199 8.30957 9.5957C8.18066 9.64941 8.08936 9.7264 8.03564 9.82666C7.98193 9.92334 7.9515 10.0487 7.94434 10.2026H6.88086V6.01318H12.2305V7.04443H7.94971V8.90283C8.03206 8.82406 8.12158 8.7596 8.21826 8.70947C8.31494 8.65576 8.43311 8.61279 8.57275 8.58057C8.71598 8.54834 8.88607 8.52686 9.08301 8.51611C9.27995 8.50179 9.51986 8.49463 9.80273 8.49463C10.1035 8.49463 10.3577 8.50179 10.5654 8.51611C10.7767 8.53044 10.9575 8.5555 11.1079 8.59131C11.2619 8.62354 11.3944 8.6665 11.5054 8.72021C11.6164 8.77393 11.7256 8.84017 11.833 8.91895C11.9619 9.02995 12.0747 9.15706 12.1714 9.30029C12.2716 9.44352 12.3504 9.59749 12.4077 9.76221V9.75684C12.5187 10.0755 12.5742 10.5804 12.5742 11.2715C12.5742 11.9303 12.5295 12.4119 12.4399 12.7163V12.7109C12.3468 13.0547 12.1857 13.3286 11.9565 13.5327C11.731 13.7332 11.4606 13.8765 11.1455 13.9624C10.834 14.0519 10.3542 14.0967 9.70605 14.0967C9.29427 14.0967 8.95052 14.0859 8.6748 14.0645C8.39909 14.0465 8.16634 14.0125 7.97656 13.9624C7.79036 13.9123 7.63639 13.846 7.51465 13.7637C7.3929 13.6813 7.28011 13.5775 7.17627 13.4521C7.02588 13.2767 6.91309 13.078 6.83789 12.856C6.76628 12.6304 6.73047 12.3851 6.73047 12.1201V11.5132Z" fill="white"/>
</svg>
