<svg width="36" height="36" viewBox="0 0 36 36" fill="none" xmlns="http://www.w3.org/2000/svg">
<circle cx="18" cy="18" r="18" fill="#B20FFF" fill-opacity="0.2"/>
<path d="M17.5113 13.2336C15.3883 13.2336 13.6538 14.9681 13.6538 17.0912C13.6538 18.2013 14.1395 19.2697 14.9582 19.9913C15.5687 20.6018 15.5132 21.9062 15.4993 21.92C15.4993 21.9894 15.5132 22.0449 15.5687 22.1004C15.6103 22.1421 15.6797 22.1698 15.7352 22.1698H19.2736C19.343 22.1698 19.3985 22.1421 19.4401 22.1004C19.4817 22.0588 19.5095 21.9894 19.5095 21.92C19.5095 21.9062 19.4401 20.6018 20.0507 19.9913C20.0645 19.9774 20.0784 19.9635 20.0923 19.9496C20.8971 19.2142 21.3689 18.1735 21.3689 17.0912C21.3689 14.9681 19.6344 13.2336 17.5113 13.2336ZM19.7315 19.6305C19.7176 19.6444 19.6899 19.6721 19.6899 19.686C19.1487 20.2688 19.0516 21.2262 19.0377 21.6842H15.9711C15.9572 21.2262 15.8601 20.2272 15.2773 19.6305C14.5419 18.9922 14.1117 18.0625 14.1117 17.0773C14.1117 15.204 15.6242 13.6916 17.4975 13.6916C19.3707 13.6916 20.8832 15.204 20.8832 17.0773C20.8832 18.0625 20.4669 18.9922 19.7315 19.6305Z" fill="#CA00FF"/>
<path d="M19.0373 22.4326H15.9568C15.6377 22.4326 15.374 22.6963 15.374 23.0154C15.374 23.3346 15.6377 23.5982 15.9568 23.5982H19.0234C19.3564 23.5843 19.6201 23.3346 19.6201 23.0154C19.6201 22.6963 19.3564 22.4326 19.0373 22.4326ZM19.0373 23.1125H15.9568C15.9013 23.1125 15.8458 23.0709 15.8458 23.0015C15.8458 22.9322 15.8874 22.8905 15.9568 22.8905H19.0234C19.0789 22.8905 19.1344 22.9322 19.1344 23.0015C19.1344 23.0709 19.0928 23.1125 19.0373 23.1125Z" fill="#CA00FF"/>
<path d="M18.58 23.8337H16.4153C16.0962 23.8337 15.8325 24.0974 15.8325 24.4165C15.8325 24.7357 16.0962 24.9994 16.4153 24.9994H18.58C18.8991 24.9994 19.1628 24.7357 19.1628 24.4165C19.1628 24.0835 18.8991 23.8337 18.58 23.8337ZM18.58 24.5137H16.4153C16.3598 24.5137 16.3043 24.4721 16.3043 24.4027C16.3043 24.3333 16.3459 24.2917 16.4153 24.2917H18.58C18.6355 24.2917 18.691 24.3333 18.691 24.4027C18.691 24.4721 18.6355 24.5137 18.58 24.5137Z" fill="#CA00FF"/>
<path d="M17.4976 12.0814C17.6364 12.0814 17.7335 11.9704 17.7335 11.8455V10.2359C17.7335 10.111 17.6225 10 17.4976 10C17.3727 10 17.2617 10.111 17.2617 10.2359V11.8455C17.2617 11.9704 17.3727 12.0814 17.4976 12.0814Z" fill="#CA00FF"/>
<path d="M21.4243 11.1933C21.3133 11.1101 21.1746 11.1517 21.1052 11.2488L20.2171 12.5809C20.1339 12.6919 20.1616 12.8446 20.2726 12.914C20.3142 12.9417 20.3559 12.9556 20.3975 12.9556C20.4808 12.9556 20.5501 12.914 20.5918 12.8446L21.4798 11.5125C21.5631 11.4153 21.5353 11.2627 21.4243 11.1933Z" fill="#CA00FF"/>
<path d="M14.6805 12.8996C14.7221 12.8996 14.7638 12.8857 14.8054 12.858C14.9164 12.7886 14.9441 12.636 14.8748 12.525L14.0144 11.179C13.9451 11.068 13.7924 11.0402 13.6814 11.1096C13.5704 11.179 13.5427 11.3316 13.612 11.4426L14.4724 12.7886C14.5279 12.8719 14.5972 12.8996 14.6805 12.8996Z" fill="#CA00FF"/>
<path d="M13.0016 14.3707L11.6001 13.6075C11.4891 13.552 11.3365 13.5936 11.281 13.7046C11.2116 13.8156 11.2532 13.9683 11.3781 14.0238L12.7796 14.787C12.8212 14.8008 12.849 14.8147 12.8906 14.8147C12.9739 14.8147 13.0571 14.7731 13.0987 14.6898C13.1542 14.5788 13.1126 14.4262 13.0016 14.3707Z" fill="#CA00FF"/>
<path d="M23.7277 13.7046C23.6722 13.5936 23.5195 13.552 23.4085 13.6075L21.9932 14.3707C21.8822 14.4262 21.8406 14.5788 21.8961 14.6898C21.9377 14.7731 22.0209 14.8147 22.1042 14.8147C22.1458 14.8147 22.1875 14.8008 22.2152 14.787L23.6305 14.0238C23.7416 13.9683 23.7832 13.8156 23.7277 13.7046Z" fill="#CA00FF"/>
</svg>
