<svg width="12" height="12" viewBox="0 0 12 12" fill="none" xmlns="http://www.w3.org/2000/svg">
<g clip-path="url(#clip0)">
<path d="M5.28455 0C2.37073 0 0 2.37073 0 5.28455C0 8.19853 2.37073 10.5691 5.28455 10.5691C8.19853 10.5691 10.5691 8.19853 10.5691 5.28455C10.5691 2.37073 8.19853 0 5.28455 0ZM5.28455 9.59351C2.90862 9.59351 0.975609 7.6605 0.975609 5.28457C0.975609 2.90864 2.90862 0.975609 5.28455 0.975609C7.66048 0.975609 9.59348 2.90862 9.59348 5.28455C9.59348 7.66048 7.66048 9.59351 5.28455 9.59351Z" fill="#08141D"/>
<path d="M11.857 11.1672L9.06024 8.37047C8.86967 8.1799 8.56104 8.1799 8.37047 8.37047C8.1799 8.56087 8.1799 8.86983 8.37047 9.06023L11.1672 11.857C11.2625 11.9523 11.3873 11.9999 11.5121 11.9999C11.6368 11.9999 11.7617 11.9523 11.857 11.857C12.0476 11.6666 12.0476 11.3576 11.857 11.1672Z" fill="#08141D"/>
</g>
<defs>
<clipPath id="clip0">
<rect width="12" height="12" fill="white"/>
</clipPath>
</defs>
</svg>
