<svg width="42" height="42" viewBox="0 0 42 42" fill="none" xmlns="http://www.w3.org/2000/svg">
<circle cx="21" cy="21" r="21" fill="white"/>
<path d="M26.4994 27.5028V26.0025C26.4994 25.2067 26.1832 24.4435 25.6205 23.8808C25.0578 23.3181 24.2946 23.002 23.4988 23.002H17.4976C16.7018 23.002 15.9386 23.3181 15.3759 23.8808C14.8132 24.4435 14.4971 25.2067 14.4971 26.0025V27.5028" stroke="#08141D" stroke-width="1.33333" stroke-linecap="round" stroke-linejoin="round"/>
<path d="M20.4986 20.0012C22.1558 20.0012 23.4992 18.6577 23.4992 17.0006C23.4992 15.3434 22.1558 14 20.4986 14C18.8415 14 17.498 15.3434 17.498 17.0006C17.498 18.6577 18.8415 20.0012 20.4986 20.0012Z" stroke="#08141D" stroke-width="1.33333" stroke-linecap="round" stroke-linejoin="round"/>
<path d="M30.9995 27.5027V26.0024C30.999 25.3376 30.7777 24.6918 30.3704 24.1663C29.963 23.6409 29.3927 23.2656 28.749 23.0994" stroke="#08141D" stroke-width="1.33333" stroke-linecap="round" stroke-linejoin="round"/>
<path d="M25.75 14.0974C26.3954 14.2627 26.9675 14.638 27.376 15.1643C27.7846 15.6907 28.0063 16.338 28.0063 17.0042C28.0063 17.6705 27.7846 18.3178 27.376 18.8441C26.9675 19.3704 26.3954 19.7458 25.75 19.911" stroke="#08141D" stroke-width="1.33333" stroke-linecap="round" stroke-linejoin="round"/>
<path d="M10.0005 27.5028V25.9693C10.001 25.2897 10.2223 24.6296 10.6296 24.0925C11.037 23.5554 11.6073 23.1718 12.251 23.002" stroke="#08141D" stroke-width="1.33333" stroke-linecap="round" stroke-linejoin="round"/>
<path d="M25.75 14.0974C26.3954 14.2627 26.9675 14.638 27.376 15.1643C27.7846 15.6907 28.0063 16.338 28.0063 17.0042C28.0063 17.6705 27.7846 18.3178 27.376 18.8441C26.9675 19.3704 26.3954 19.7458 25.75 19.911" stroke="#08141D" stroke-width="1.33333" stroke-linecap="round" stroke-linejoin="round"/>
<path d="M15.2432 19.9111C14.5977 19.7459 14.0257 19.3705 13.6171 18.8442C13.2086 18.3179 12.9868 17.6706 12.9868 17.0043C12.9868 16.3381 13.2086 15.6908 13.6171 15.1645C14.0257 14.6381 14.5977 14.2628 15.2432 14.0975" stroke="#08141D" stroke-width="1.33333" stroke-linecap="round" stroke-linejoin="round"/>
</svg>
