<svg width="14" height="14" viewBox="0 0 14 14" fill="none" xmlns="http://www.w3.org/2000/svg">
<path opacity="0.9" d="M7.35 0.349609C4.9 0.349609 2.73 1.67961 1.61 3.70961L0 2.09961V6.64961H4.55L2.59 4.68961C3.5 2.93961 5.25 1.74961 7.35 1.74961C10.22 1.74961 12.6 4.12961 12.6 6.99961C12.6 9.86961 10.22 12.2496 7.35 12.2496C5.04 12.2496 3.15 10.7796 2.38 8.74961H0.91C1.68 11.5496 4.27 13.6496 7.35 13.6496C11.06 13.6496 14 10.6396 14 6.99961C14 3.35961 10.99 0.349609 7.35 0.349609ZM6.3 3.84961V7.41961L9.59 9.37961L10.15 8.46961L7.35 6.78961V3.84961H6.3Z" fill="#1E88E5"/>
</svg>
