<svg width="20" height="20" viewBox="0 0 20 20" fill="none" xmlns="http://www.w3.org/2000/svg">
<path d="M11.7417 13.0288L11.6197 13.5428C11.2538 13.6917 10.9615 13.805 10.7438 13.883C10.5259 13.9611 10.2727 14 9.98424 14C9.54125 14 9.19668 13.8881 8.95093 13.6659C8.70518 13.4428 8.58226 13.1601 8.58226 12.8171C8.58226 12.6843 8.59118 12.5478 8.60972 12.4086C8.62842 12.2693 8.65815 12.1124 8.69884 11.9371L9.15615 10.2683C9.19683 10.1086 9.23142 9.95715 9.25911 9.81398C9.2872 9.67169 9.30074 9.54077 9.30074 9.42293C9.30074 9.20982 9.25794 9.06076 9.17274 8.97695C9.08753 8.89338 8.92495 8.85095 8.68358 8.85095C8.56536 8.85095 8.44385 8.87047 8.32 8.90822C8.1956 8.94614 8.08927 8.98276 8 9.0168L8.12229 8.50233C8.42187 8.37658 8.70823 8.2689 8.98214 8.17953C9.25606 8.08991 9.51488 8.04506 9.75969 8.04506C10.1996 8.04506 10.5391 8.15468 10.7775 8.37392C11.0159 8.59332 11.1351 8.87773 11.1351 9.22821C11.1351 9.30072 11.1272 9.42849 11.1104 9.61111C11.094 9.79413 11.0634 9.96183 11.0188 10.1144L10.5634 11.7764C10.5261 11.9099 10.4926 12.0625 10.4634 12.2342C10.4333 12.4048 10.4189 12.5352 10.4189 12.6226C10.4189 12.8433 10.4666 12.994 10.5623 13.0741C10.6587 13.1542 10.8247 13.194 11.0605 13.194C11.1712 13.194 11.2972 13.1738 11.4372 13.134C11.5767 13.0942 11.6785 13.0593 11.7417 13.0288ZM11.8571 6.05102C11.8571 6.3406 11.7513 6.58791 11.5386 6.79126C11.3264 6.99533 11.0707 7.09745 10.7716 7.09745C10.4715 7.09745 10.2152 6.99533 10.0006 6.79126C9.78637 6.58783 9.67903 6.3406 9.67903 6.05102C9.67903 5.76201 9.78637 5.5143 10.0006 5.30837C10.2148 5.10276 10.4716 5 10.7716 5C11.0706 5 11.3264 5.10301 11.5386 5.30837C11.7514 5.5143 11.8571 5.76209 11.8571 6.05102Z" fill="#5FB2FF"/>
<circle cx="10" cy="10" r="9.5" stroke="#5FB2FF"/>
</svg>
