<svg width="20" height="20" viewBox="0 0 20 20" fill="none" xmlns="http://www.w3.org/2000/svg">
<rect width="20" height="20" rx="4" fill="url(#paint0_linear)"/>
<path fill-rule="evenodd" clip-rule="evenodd" d="M12.5 5H7.5C6.11929 5 5 6.11929 5 7.5V12.5C5 13.8807 6.11929 15 7.5 15H12.5C13.8807 15 15 13.8807 15 12.5V7.5C15 6.11929 13.8807 5 12.5 5ZM9.21561 8.42502C9.54234 8.25549 9.9142 8.1933 10.2783 8.24729C10.6497 8.30237 10.9936 8.47543 11.259 8.74093C11.5245 9.00642 11.6976 9.35027 11.7527 9.72167C11.8067 10.0858 11.7445 10.4576 11.5749 10.7844C11.4054 11.1111 11.1372 11.376 10.8084 11.5415C10.4796 11.707 10.107 11.7646 9.74359 11.7061C9.38017 11.6477 9.04445 11.4761 8.78417 11.2158C8.52389 10.9555 8.35231 10.6198 8.29383 10.2564C8.23536 9.89297 8.29296 9.52037 8.45845 9.19158C8.62394 8.86279 8.88889 8.59456 9.21561 8.42502ZM10.3516 7.7527C9.88351 7.68328 9.4054 7.76324 8.98533 7.98121C8.56525 8.19918 8.2246 8.54406 8.01183 8.96679C7.79906 9.38952 7.725 9.86858 7.80018 10.3358C7.87537 10.8031 8.09597 11.2347 8.43062 11.5694C8.76526 11.904 9.1969 12.1246 9.66415 12.1998C10.1314 12.275 10.6105 12.2009 11.0332 11.9881C11.4559 11.7754 11.8008 11.4347 12.0188 11.0146C12.2367 10.5946 12.3167 10.1165 12.2473 9.64833C12.1765 9.17081 11.9539 8.72872 11.6126 8.38737C11.2713 8.04603 10.8292 7.82351 10.3516 7.7527ZM12.25 7.25C12.25 6.97386 12.4739 6.75 12.75 6.75H12.755C13.0311 6.75 13.255 6.97386 13.255 7.25C13.255 7.52614 13.0311 7.75 12.755 7.75H12.75C12.4739 7.75 12.25 7.52614 12.25 7.25Z" fill="white"/>
<defs>
<linearGradient id="paint0_linear" x1="10" y1="0" x2="10" y2="20" gradientUnits="userSpaceOnUse">
<stop stop-color="#6F56ED"/>
<stop offset="1" stop-color="#FF0202" stop-opacity="0.79"/>
</linearGradient>
</defs>
</svg>
