<svg width="16" height="16" viewBox="0 0 16 16" fill="none" xmlns="http://www.w3.org/2000/svg">
<rect width="16" height="16" rx="3" fill="url(#paint0_linear)"/>
<path fill-rule="evenodd" clip-rule="evenodd" d="M10.0833 3.83325H5.91659C4.76599 3.83325 3.83325 4.76599 3.83325 5.91659V10.0833C3.83325 11.2338 4.76599 12.1666 5.91659 12.1666H10.0833C11.2338 12.1666 12.1666 11.2338 12.1666 10.0833V5.91659C12.1666 4.76599 11.2338 3.83325 10.0833 3.83325ZM7.36545 6.72442C7.62994 6.58718 7.93097 6.53684 8.22573 6.58055C8.52639 6.62513 8.80474 6.76523 9.01966 6.98015C9.23458 7.19508 9.37469 7.47343 9.41927 7.77409C9.46298 8.06884 9.41263 8.36987 9.27539 8.63436C9.13815 8.89886 8.92101 9.11334 8.65485 9.24731C8.38868 9.38127 8.08705 9.4279 7.79286 9.38056C7.49867 9.33322 7.22689 9.19433 7.01619 8.98362C6.80549 8.77292 6.66659 8.50115 6.61925 8.20695C6.57191 7.91276 6.61854 7.61113 6.75251 7.34497C6.88648 7.07881 7.10096 6.86166 7.36545 6.72442ZM8.29907 6.08595C7.90028 6.02682 7.49301 6.09493 7.13517 6.28061C6.77732 6.46629 6.48714 6.76007 6.30589 7.12018C6.12464 7.48028 6.06155 7.88836 6.1256 8.28639C6.18965 8.68442 6.37757 9.05211 6.66264 9.33718C6.9477 9.62224 7.3154 9.81017 7.71343 9.87421C8.11145 9.93826 8.51954 9.87517 8.87964 9.69392C9.23974 9.51267 9.53353 9.22249 9.7192 8.86465C9.90488 8.50681 9.973 8.09953 9.91386 7.70075C9.85354 7.29397 9.66399 6.91738 9.37321 6.6266C9.08243 6.33582 8.70584 6.14627 8.29907 6.08595ZM9.79159 5.70825C9.79159 5.43211 10.0154 5.20825 10.2916 5.20825H10.2966C10.5727 5.20825 10.7966 5.43211 10.7966 5.70825C10.7966 5.98439 10.5727 6.20825 10.2966 6.20825H10.2916C10.0154 6.20825 9.79159 5.98439 9.79159 5.70825Z" fill="white"/>
<defs>
<linearGradient id="paint0_linear" x1="8" y1="0" x2="8" y2="16" gradientUnits="userSpaceOnUse">
<stop stop-color="#6F56ED"/>
<stop offset="1" stop-color="#FF0202" stop-opacity="0.79"/>
</linearGradient>
</defs>
</svg>
