<svg width="30" height="30" viewBox="0 0 30 30" fill="none" xmlns="http://www.w3.org/2000/svg">
<circle cx="15" cy="15" r="15" fill="#1C323F"/>
<path d="M18 7H12C9.239 7 7 9.239 7 12V18C7 20.761 9.239 23 12 23H18C20.761 23 23 20.761 23 18V12C23 9.239 20.761 7 18 7ZM21.5 18C21.5 19.93 19.93 21.5 18 21.5H12C10.07 21.5 8.5 19.93 8.5 18V12C8.5 10.07 10.07 8.5 12 8.5H18C19.93 8.5 21.5 10.07 21.5 12V18Z" fill="url(#paint0_linear)"/>
<path d="M15 11C12.791 11 11 12.791 11 15C11 17.209 12.791 19 15 19C17.209 19 19 17.209 19 15C19 12.791 17.209 11 15 11ZM15 17.5C13.622 17.5 12.5 16.378 12.5 15C12.5 13.621 13.622 12.5 15 12.5C16.378 12.5 17.5 13.621 17.5 15C17.5 16.378 16.378 17.5 15 17.5Z" fill="white"/>
<path d="M19.3006 11.233C19.5949 11.233 19.8336 10.9944 19.8336 10.7C19.8336 10.4056 19.5949 10.167 19.3006 10.167C19.0062 10.167 18.7676 10.4056 18.7676 10.7C18.7676 10.9944 19.0062 11.233 19.3006 11.233Z" fill="url(#paint1_linear)"/>
<defs>
<linearGradient id="paint0_linear" x1="8.46465" y1="21.5355" x2="21.5353" y2="8.46455" gradientUnits="userSpaceOnUse">
<stop stop-color="white"/>
</linearGradient>
<linearGradient id="paint1_linear" x1="18.9237" y1="11.0769" x2="19.6774" y2="10.3231" gradientUnits="userSpaceOnUse">
<stop stop-color="white"/>
<stop offset="0.507" stop-color="white"/>
<stop offset="0.99" stop-color="white"/>
</linearGradient>
</defs>
</svg>
