<svg width="15" height="15" viewBox="0 0 15 15" fill="none" xmlns="http://www.w3.org/2000/svg">
<path d="M7.51135 3.23364C5.38831 3.23364 3.65381 4.96815 3.65381 7.09118C3.65381 8.20126 4.13947 9.26972 4.95816 9.99127C5.5687 10.6018 5.5132 11.9062 5.49932 11.92C5.49932 11.9894 5.5132 12.0449 5.5687 12.1004C5.61033 12.1421 5.67971 12.1698 5.73521 12.1698H9.2736C9.34299 12.1698 9.39849 12.1421 9.44012 12.1004C9.48175 12.0588 9.5095 11.9894 9.5095 11.92C9.5095 11.9062 9.44012 10.6018 10.0507 9.99127C10.0645 9.9774 10.0784 9.96352 10.0923 9.94965C10.8971 9.21422 11.3689 8.17351 11.3689 7.09118C11.3689 4.96815 9.63438 3.23364 7.51135 3.23364ZM9.73151 9.6305C9.71764 9.64437 9.68989 9.67213 9.68989 9.686C9.14872 10.2688 9.05159 11.2262 9.03771 11.6842H5.97111C5.95723 11.2262 5.8601 10.2272 5.27731 9.6305C4.54188 8.9922 4.11172 8.0625 4.11172 7.07731C4.11172 5.20404 5.62421 3.69155 7.49747 3.69155C9.37074 3.69155 10.8832 5.20404 10.8832 7.07731C10.8832 8.0625 10.4669 8.9922 9.73151 9.6305Z" fill="#CA00FF"/>
<path d="M9.03729 12.4326H5.95682C5.63767 12.4326 5.37402 12.6963 5.37402 13.0154C5.37402 13.3346 5.63767 13.5982 5.95682 13.5982H9.02341C9.35644 13.5843 9.62008 13.3346 9.62008 13.0154C9.62008 12.6963 9.35644 12.4326 9.03729 12.4326ZM9.03729 13.1125H5.95682C5.90131 13.1125 5.84581 13.0709 5.84581 13.0015C5.84581 12.9322 5.88744 12.8905 5.95682 12.8905H9.02341C9.07892 12.8905 9.13442 12.9322 9.13442 13.0015C9.13442 13.0709 9.09279 13.1125 9.03729 13.1125Z" fill="#CA00FF"/>
<path d="M8.57998 13.8337H6.41531C6.09616 13.8337 5.83252 14.0974 5.83252 14.4165C5.83252 14.7357 6.09616 14.9994 6.41531 14.9994H8.57998C8.89912 14.9994 9.16277 14.7357 9.16277 14.4165C9.16277 14.0835 8.89912 13.8337 8.57998 13.8337ZM8.57998 14.5137H6.41531C6.35981 14.5137 6.30431 14.4721 6.30431 14.4027C6.30431 14.3333 6.34593 14.2917 6.41531 14.2917H8.57998C8.63548 14.2917 8.69098 14.3333 8.69098 14.4027C8.69098 14.4721 8.63548 14.5137 8.57998 14.5137Z" fill="#CA00FF"/>
<path d="M7.49761 2.08141C7.63637 2.08141 7.73351 1.9704 7.73351 1.84552V0.235893C7.73351 0.111008 7.6225 0 7.49761 0C7.37273 0 7.26172 0.111008 7.26172 0.235893V1.84552C7.26172 1.9704 7.37273 2.08141 7.49761 2.08141Z" fill="#CA00FF"/>
<path d="M11.4243 1.19332C11.3133 1.11007 11.1746 1.15169 11.1052 1.24883L10.2171 2.58093C10.1339 2.69193 10.1616 2.84457 10.2726 2.91395C10.3142 2.9417 10.3559 2.95558 10.3975 2.95558C10.4808 2.95558 10.5501 2.91395 10.5918 2.84457L11.4798 1.51247C11.5631 1.41534 11.5353 1.2627 11.4243 1.19332Z" fill="#CA00FF"/>
<path d="M4.6805 2.89961C4.72213 2.89961 4.76376 2.88574 4.80538 2.85799C4.91639 2.78861 4.94415 2.63597 4.87476 2.52496L4.01445 1.17898C3.94507 1.06797 3.79243 1.04022 3.68142 1.1096C3.57042 1.17898 3.54266 1.33162 3.61204 1.44263L4.47236 2.78861C4.52786 2.87186 4.59724 2.89961 4.6805 2.89961Z" fill="#CA00FF"/>
<path d="M3.00161 4.37067L1.60013 3.60749C1.48912 3.55198 1.33649 3.59361 1.28098 3.70462C1.2116 3.81563 1.25323 3.96826 1.37811 4.02377L2.77959 4.78696C2.82122 4.80083 2.84897 4.81471 2.8906 4.81471C2.97386 4.81471 3.05711 4.77308 3.09874 4.68982C3.15424 4.57881 3.11262 4.42618 3.00161 4.37067Z" fill="#CA00FF"/>
<path d="M13.7277 3.70462C13.6722 3.59361 13.5195 3.55198 13.4085 3.60749L11.9932 4.37067C11.8822 4.42618 11.8406 4.57881 11.8961 4.68982C11.9377 4.77308 12.0209 4.81471 12.1042 4.81471C12.1458 4.81471 12.1875 4.80083 12.2152 4.78696L13.6305 4.02377C13.7416 3.96826 13.7832 3.81563 13.7277 3.70462Z" fill="#CA00FF"/>
</svg>
