<svg width="19" height="20" viewBox="0 0 19 20" fill="none" xmlns="http://www.w3.org/2000/svg">
<path d="M5.83366 18.3334H3.33366C2.89163 18.3334 2.46771 18.1578 2.15515 17.8453C1.84259 17.5327 1.66699 17.1088 1.66699 16.6667V10.8334C1.66699 10.3914 1.84259 9.96746 2.15515 9.6549C2.46771 9.34234 2.89163 9.16675 3.33366 9.16675H5.83366M11.667 7.50008V4.16675C11.667 3.50371 11.4036 2.86782 10.9348 2.39898C10.4659 1.93014 9.83003 1.66675 9.16699 1.66675L5.83366 9.16675V18.3334H15.2337C15.6356 18.338 16.0256 18.1971 16.3319 17.9368C16.6382 17.6764 16.8401 17.3142 16.9003 16.9167L18.0503 9.41675C18.0866 9.17788 18.0705 8.93398 18.0031 8.70196C17.9357 8.46993 17.8187 8.25533 17.6602 8.07301C17.5017 7.89069 17.3054 7.74502 17.085 7.6461C16.8645 7.54717 16.6252 7.49735 16.3837 7.50008H11.667Z" stroke="#3E4457" stroke-width="1.66667" stroke-linecap="round" stroke-linejoin="round"/>
</svg>
