<svg width="30" height="30" viewBox="0 0 30 30" fill="none" xmlns="http://www.w3.org/2000/svg">
<circle cx="15" cy="15" r="15" fill="#1C323F"/>
<path d="M17.667 12.3334C18.7279 12.3334 19.7453 12.7548 20.4954 13.5049C21.2456 14.2551 21.667 15.2725 21.667 16.3334V21H19.0003V16.3334C19.0003 15.9798 18.8598 15.6406 18.6098 15.3906C18.3598 15.1405 18.0206 15 17.667 15C17.3134 15 16.9742 15.1405 16.7242 15.3906C16.4741 15.6406 16.3337 15.9798 16.3337 16.3334V21H13.667V16.3334C13.667 15.2725 14.0884 14.2551 14.8386 13.5049C15.5887 12.7548 16.6061 12.3334 17.667 12.3334V12.3334Z" stroke="white" stroke-width="1.33333" stroke-linecap="round" stroke-linejoin="round"/>
<path d="M10.9997 13H8.33301V21H10.9997V13Z" stroke="white" stroke-width="1.33333" stroke-linecap="round" stroke-linejoin="round"/>
<path d="M9.66634 11C10.4027 11 10.9997 10.4031 10.9997 9.66671C10.9997 8.93033 10.4027 8.33337 9.66634 8.33337C8.92996 8.33337 8.33301 8.93033 8.33301 9.66671C8.33301 10.4031 8.92996 11 9.66634 11Z" stroke="white" stroke-width="1.33333" stroke-linecap="round" stroke-linejoin="round"/>
</svg>
