<svg width="14" height="14" viewBox="0 0 14 14" fill="none" xmlns="http://www.w3.org/2000/svg">
<path d="M7.75246 5.41911L5.41913 7.75244C5.36446 7.80667 5.32106 7.87119 5.29144 7.94228C5.26183 8.01336 5.24658 8.0896 5.24658 8.16661C5.24658 8.24362 5.26183 8.31986 5.29144 8.39095C5.32106 8.46203 5.36446 8.52655 5.41913 8.58078C5.47336 8.63545 5.53788 8.67885 5.60896 8.70846C5.68005 8.73808 5.75629 8.75333 5.8333 8.75333C5.9103 8.75333 5.98655 8.73808 6.05763 8.70846C6.12872 8.67885 6.19324 8.63545 6.24746 8.58078L8.5808 6.24745C8.69064 6.1376 8.75235 5.98862 8.75235 5.83328C8.75235 5.67794 8.69064 5.52896 8.5808 5.41911C8.47095 5.30927 8.32197 5.24756 8.16663 5.24756C8.01129 5.24756 7.86231 5.30927 7.75246 5.41911Z" fill="#1E88E5"/>
<path d="M7.16326 10.1501L6.41659 10.891C5.99742 11.3229 5.43392 11.5854 4.83358 11.6284C4.23324 11.6715 3.63806 11.492 3.16157 11.1243C2.90973 10.9168 2.70422 10.6587 2.55831 10.3668C2.4124 10.0749 2.32934 9.75568 2.3145 9.42969C2.29966 9.1037 2.35336 8.77822 2.47214 8.47428C2.59092 8.17033 2.77213 7.89468 3.00407 7.66513L3.83241 6.83096C3.88708 6.77673 3.93048 6.71221 3.9601 6.64113C3.98971 6.57005 4.00496 6.4938 4.00496 6.41679C4.00496 6.33979 3.98971 6.26354 3.9601 6.19246C3.93048 6.12137 3.88708 6.05686 3.83241 6.00263C3.77818 5.94795 3.71366 5.90456 3.64258 5.87494C3.57149 5.84533 3.49525 5.83008 3.41824 5.83008C3.34123 5.83008 3.26499 5.84533 3.1939 5.87494C3.12282 5.90456 3.0583 5.94795 3.00407 6.00263L2.26323 6.74929C1.63916 7.35363 1.25557 8.16389 1.18369 9.02964C1.11182 9.89539 1.35653 10.7578 1.8724 11.4568C2.17858 11.854 2.56577 12.1815 3.00826 12.4176C3.45075 12.6536 3.93841 12.7928 4.43883 12.8259C4.93926 12.859 5.441 12.7853 5.91073 12.6096C6.38046 12.4339 6.80742 12.1602 7.16326 11.8068L7.99159 10.9785C8.10144 10.8686 8.16315 10.7196 8.16315 10.5643C8.16315 10.409 8.10144 10.26 7.99159 10.1501C7.88175 10.0403 7.73277 9.97857 7.57742 9.97857C7.42208 9.97857 7.2731 10.0403 7.16326 10.1501Z" fill="#1E88E5"/>
<path d="M11.4684 1.8784C10.7646 1.35717 9.89518 1.10996 9.02244 1.18296C8.1497 1.25596 7.33337 1.64416 6.72594 2.27506L6.09594 2.91673C6.02393 2.96908 5.96372 3.03596 5.9192 3.11305C5.87468 3.19015 5.84685 3.27573 5.8375 3.36426C5.82815 3.45279 5.8375 3.5423 5.86494 3.62699C5.89237 3.71168 5.93729 3.78966 5.99678 3.8559C6.051 3.91057 6.11552 3.95397 6.18661 3.98358C6.25769 4.0132 6.33393 4.02844 6.41094 4.02844C6.48795 4.02844 6.56419 4.0132 6.63528 3.98358C6.70636 3.95397 6.77088 3.91057 6.82511 3.8559L7.58344 3.09173C8.00029 2.65791 8.56312 2.39397 9.1632 2.35087C9.76328 2.30778 10.358 2.4886 10.8326 2.8584C11.0863 3.06595 11.2935 3.32463 11.4405 3.61758C11.5876 3.91054 11.6713 4.23119 11.6861 4.55865C11.701 4.88611 11.6467 5.21303 11.5268 5.5181C11.4068 5.82317 11.224 6.09955 10.9901 6.32923L10.1618 7.16339C10.1071 7.21762 10.0637 7.28214 10.0341 7.35322C10.0045 7.42431 9.98923 7.50055 9.98923 7.57756C9.98923 7.65457 10.0045 7.73081 10.0341 7.8019C10.0637 7.87298 10.1071 7.9375 10.1618 7.99173C10.216 8.0464 10.2805 8.0898 10.3516 8.11941C10.4227 8.14903 10.4989 8.16428 10.5759 8.16428C10.6529 8.16428 10.7292 8.14903 10.8003 8.11941C10.8714 8.0898 10.9359 8.0464 10.9901 7.99173L11.8184 7.16339C12.1709 6.80762 12.4437 6.38103 12.6188 5.91188C12.7939 5.44272 12.8674 4.94171 12.8343 4.44203C12.8012 3.94235 12.6623 3.4554 12.4269 3.01344C12.1914 2.57148 11.8647 2.18459 11.4684 1.8784Z" fill="#1E88E5"/>
</svg>
