<svg width="20" height="20" viewBox="0 0 20 20" fill="none" xmlns="http://www.w3.org/2000/svg">
<rect width="20" height="20" rx="4" fill="#289BFF"/>
<path d="M6.73575 13.8813V13.6306L6.53497 13.4807C5.28486 12.5469 4.5 11.1303 4.5 9.55525C4.5 6.79873 6.92566 4.5 10 4.5C13.0743 4.5 15.5 6.79868 15.5 9.556C15.5 12.3125 13.0743 14.6112 10 14.6112C9.44719 14.6112 8.91449 14.5358 8.41199 14.3968L8.21623 14.3427L8.03819 14.4404L6.73575 15.1552V13.8813Z" fill="white" stroke="white"/>
<path d="M10.5964 11.4813L9.06865 9.8515L6.0874 11.4813L9.3664 7.99976L10.9317 9.6295L13.8762 7.99976L10.5964 11.4813Z" fill="#1E88E5"/>
</svg>
