<svg width="14" height="14" viewBox="0 0 14 14" fill="none" xmlns="http://www.w3.org/2000/svg">
<path d="M12.2499 7.46083C12.1582 8.45379 11.7855 9.40007 11.1756 10.189C10.5656 10.9778 9.74365 11.5767 8.80577 11.9155C7.86789 12.2542 6.85293 12.3189 5.87965 12.1019C4.90637 11.8849 4.01502 11.3952 3.30991 10.69C2.60479 9.98492 2.11507 9.09357 1.89806 8.12029C1.68104 7.14701 1.74569 6.13205 2.08446 5.19417C2.42323 4.2563 3.02209 3.4343 3.81098 2.82436C4.59987 2.21442 5.54616 1.84176 6.53911 1.75C5.95777 2.53649 5.67802 3.50551 5.75075 4.48083C5.82348 5.45614 6.24386 6.37295 6.93543 7.06452C7.62699 7.75608 8.54381 8.17646 9.51912 8.24919C10.4944 8.32192 11.4635 8.04218 12.2499 7.46083V7.46083Z" stroke="#404040" stroke-width="1.33333" stroke-linecap="round" stroke-linejoin="round"/>
</svg>
