<svg width="20" height="20" viewBox="0 0 20 20" fill="none" xmlns="http://www.w3.org/2000/svg">
<rect x="0.5" y="0.5" width="19" height="19" rx="3.5" fill="#3FB969" stroke="#3FB969"/>
<path d="M15.9996 12.9843V14.7908C16.0003 14.9585 15.9659 15.1245 15.8986 15.2781C15.8313 15.4318 15.7325 15.5697 15.6087 15.6831C15.4849 15.7965 15.3387 15.8828 15.1795 15.9365C15.0203 15.9903 14.8517 16.0102 14.6843 15.9951C12.8277 15.7938 11.0443 15.1606 9.47734 14.1465C8.01953 13.222 6.78356 11.9884 5.8572 10.5335C4.83752 8.96259 4.20294 7.17405 4.0049 5.31277C3.98982 5.14625 4.00965 4.97843 4.06312 4.81998C4.11659 4.66153 4.20254 4.51592 4.31548 4.39244C4.42843 4.26896 4.5659 4.1703 4.71915 4.10274C4.87239 4.03519 5.03805 4.00022 5.20558 4.00006H7.01565C7.30846 3.99718 7.59233 4.10067 7.81435 4.29122C8.03636 4.48178 8.18138 4.74641 8.22236 5.03578C8.29876 5.61389 8.44044 6.18152 8.64471 6.72785C8.72589 6.94338 8.74346 7.17761 8.69534 7.4028C8.64721 7.62799 8.53542 7.83469 8.3732 7.99841L7.60694 8.76315C8.46585 10.2707 9.71655 11.5189 11.2271 12.3761L11.9933 11.6114C12.1574 11.4495 12.3645 11.3379 12.5901 11.2899C12.8158 11.2419 13.0505 11.2594 13.2664 11.3404C13.8138 11.5443 14.3826 11.6857 14.9619 11.7619C15.2549 11.8032 15.5226 11.9505 15.714 12.1759C15.9053 12.4013 16.007 12.689 15.9996 12.9843Z" fill="white"/>
</svg>
