<svg width="20" height="20" viewBox="0 0 20 20" fill="none" xmlns="http://www.w3.org/2000/svg">
<path d="M10 20C4.48615 20 0 15.5142 0 10C0 4.48577 4.48615 0 10 0C15.5138 0 20 4.48577 20 10C20 15.5142 15.5138 20 10 20ZM10 0.76923C4.91038 0.76923 0.769231 4.91038 0.769231 10C0.769231 15.0896 4.91038 19.2308 10 19.2308C15.0896 19.2308 19.2308 15.0896 19.2308 10C19.2308 4.91038 15.0896 0.76923 10 0.76923Z" fill="#777777"/>
<path d="M14.8076 10.3846H10.3845V14.6154C10.3845 14.8281 10.2122 15 9.99992 15C9.78762 15 9.61531 14.8281 9.61531 14.6154V10.3846H5.19223C4.97992 10.3846 4.80762 10.2127 4.80762 10C4.80762 9.78731 4.97992 9.61538 5.19223 9.61538H9.61531V5C9.61531 4.78731 9.78762 4.61538 9.99992 4.61538C10.2122 4.61538 10.3845 4.78731 10.3845 5V9.61538H14.8076C15.0199 9.61538 15.1922 9.78731 15.1922 10C15.1922 10.2127 15.0199 10.3846 14.8076 10.3846Z" fill="#777777"/>
</svg>
