<svg width="23" height="18" viewBox="0 0 23 18" fill="none" xmlns="http://www.w3.org/2000/svg">
<path d="M14.3333 16.9998V15.2221C14.3333 14.2791 13.9821 13.3747 13.357 12.7079C12.7319 12.0411 11.8841 11.6665 11 11.6665H4.33333C3.44928 11.6665 2.60143 12.0411 1.97631 12.7079C1.35119 13.3747 1 14.2791 1 15.2221V16.9998" stroke="white" stroke-width="1.5" stroke-linecap="round" stroke-linejoin="round"/>
<path d="M7.66659 8.11111C9.50753 8.11111 10.9999 6.51923 10.9999 4.55556C10.9999 2.59188 9.50753 1 7.66659 1C5.82564 1 4.33325 2.59188 4.33325 4.55556C4.33325 6.51923 5.82564 8.11111 7.66659 8.11111Z" stroke="white" stroke-width="1.5" stroke-linecap="round" stroke-linejoin="round"/>
<path d="M17.9998 10.0905C18.6023 10.0905 19.0908 9.60209 19.0908 8.9996C19.0908 8.39711 18.6023 7.90869 17.9998 7.90869C17.3974 7.90869 16.9089 8.39711 16.9089 8.9996C16.9089 9.60209 17.3974 10.0905 17.9998 10.0905Z" stroke="white" stroke-linecap="round" stroke-linejoin="round"/>
<path d="M20.6909 10.0909C20.6425 10.2006 20.6281 10.3223 20.6495 10.4402C20.6708 10.5582 20.7271 10.667 20.8109 10.7527L20.8327 10.7745C20.9003 10.8421 20.954 10.9223 20.9906 11.0106C21.0272 11.0989 21.046 11.1935 21.046 11.2891C21.046 11.3847 21.0272 11.4793 20.9906 11.5676C20.954 11.6559 20.9003 11.7361 20.8327 11.8036C20.7652 11.8713 20.685 11.9249 20.5967 11.9615C20.5084 11.9981 20.4138 12.0169 20.3182 12.0169C20.2226 12.0169 20.128 11.9981 20.0397 11.9615C19.9514 11.9249 19.8712 11.8713 19.8036 11.8036L19.7818 11.7818C19.6961 11.698 19.5873 11.6418 19.4693 11.6204C19.3513 11.599 19.2297 11.6134 19.12 11.6618C19.0124 11.7079 18.9207 11.7845 18.8561 11.882C18.7915 11.9796 18.7568 12.0939 18.7564 12.2109V12.2727C18.7564 12.4656 18.6797 12.6506 18.5434 12.787C18.407 12.9234 18.222 13 18.0291 13C17.8362 13 17.6512 12.9234 17.5148 12.787C17.3784 12.6506 17.3018 12.4656 17.3018 12.2727V12.24C17.299 12.1196 17.26 12.0029 17.19 11.905C17.12 11.8071 17.0221 11.7325 16.9091 11.6909C16.7994 11.6425 16.6777 11.6281 16.5598 11.6495C16.4418 11.6708 16.333 11.7271 16.2473 11.8109L16.2255 11.8327C16.1579 11.9003 16.0777 11.954 15.9894 11.9906C15.9011 12.0272 15.8065 12.046 15.7109 12.046C15.6153 12.046 15.5207 12.0272 15.4324 11.9906C15.3441 11.954 15.2639 11.9003 15.1964 11.8327C15.1287 11.7652 15.0751 11.685 15.0385 11.5967C15.0019 11.5084 14.9831 11.4138 14.9831 11.3182C14.9831 11.2226 15.0019 11.128 15.0385 11.0397C15.0751 10.9514 15.1287 10.8712 15.1964 10.8036L15.2182 10.7818C15.302 10.6961 15.3582 10.5873 15.3796 10.4693C15.401 10.3513 15.3866 10.2297 15.3382 10.12C15.2921 10.0124 15.2155 9.92072 15.118 9.85611C15.0204 9.7915 14.9061 9.75683 14.7891 9.75636H14.7273C14.5344 9.75636 14.3494 9.67974 14.213 9.54335C14.0766 9.40696 14 9.22198 14 9.02909C14 8.83621 14.0766 8.65122 14.213 8.51483C14.3494 8.37844 14.5344 8.30182 14.7273 8.30182H14.76C14.8804 8.299 14.9971 8.26004 15.095 8.19C15.1929 8.11996 15.2675 8.02209 15.3091 7.90909C15.3575 7.79941 15.3719 7.67775 15.3505 7.55979C15.3292 7.44182 15.2729 7.33297 15.1891 7.24727L15.1673 7.22545C15.0997 7.15791 15.046 7.0777 15.0094 6.98941C14.9728 6.90112 14.954 6.80648 14.954 6.71091C14.954 6.61533 14.9728 6.5207 15.0094 6.43241C15.046 6.34412 15.0997 6.26391 15.1673 6.19636C15.2348 6.12874 15.315 6.0751 15.4033 6.0385C15.4916 6.0019 15.5862 5.98306 15.6818 5.98306C15.7774 5.98306 15.872 6.0019 15.9603 6.0385C16.0486 6.0751 16.1288 6.12874 16.1964 6.19636L16.2182 6.21818C16.3039 6.30201 16.4127 6.35825 16.5307 6.37964C16.6487 6.40103 16.7703 6.38659 16.88 6.33818H16.9091C17.0166 6.29209 17.1084 6.21555 17.173 6.11799C17.2376 6.02043 17.2723 5.9061 17.2727 5.78909V5.72727C17.2727 5.53439 17.3494 5.3494 17.4857 5.21301C17.6221 5.07662 17.8071 5 18 5C18.1929 5 18.3779 5.07662 18.5143 5.21301C18.6506 5.3494 18.7273 5.53439 18.7273 5.72727V5.76C18.7277 5.87701 18.7624 5.99134 18.827 6.0889C18.8916 6.18646 18.9834 6.263 19.0909 6.30909C19.2006 6.3575 19.3223 6.37194 19.4402 6.35055C19.5582 6.32916 19.667 6.27292 19.7527 6.18909L19.7745 6.16727C19.8421 6.09965 19.9223 6.04601 20.0106 6.00941C20.0989 5.97281 20.1935 5.95397 20.2891 5.95397C20.3847 5.95397 20.4793 5.97281 20.5676 6.00941C20.6559 6.04601 20.7361 6.09965 20.8036 6.16727C20.8713 6.23482 20.9249 6.31503 20.9615 6.40332C20.9981 6.49161 21.0169 6.58624 21.0169 6.68182C21.0169 6.77739 20.9981 6.87203 20.9615 6.96032C20.9249 7.04861 20.8713 7.12882 20.8036 7.19636L20.7818 7.21818C20.698 7.30388 20.6418 7.41273 20.6204 7.5307C20.599 7.64866 20.6134 7.77032 20.6618 7.88V7.90909C20.7079 8.01664 20.7845 8.10837 20.882 8.17298C20.9796 8.23759 21.0939 8.27226 21.2109 8.27273H21.2727C21.4656 8.27273 21.6506 8.34935 21.787 8.48574C21.9234 8.62213 22 8.80712 22 9C22 9.19288 21.9234 9.37787 21.787 9.51426C21.6506 9.65065 21.4656 9.72727 21.2727 9.72727H21.24C21.123 9.72774 21.0087 9.76241 20.9111 9.82702C20.8135 9.89163 20.737 9.98336 20.6909 10.0909V10.0909Z" stroke="white" stroke-linecap="round" stroke-linejoin="round"/>
</svg>
