<svg width="17" height="16" viewBox="0 0 17 16" fill="none" xmlns="http://www.w3.org/2000/svg">
<g clip-path="url(#clip0_691:522)">
<path d="M15.8333 2.66602V6.66602H11.8333" stroke="white" stroke-width="1.33333" stroke-linecap="round" stroke-linejoin="round"/>
<path d="M1.16669 13.334V9.33398H5.16669" stroke="white" stroke-width="1.33333" stroke-linecap="round" stroke-linejoin="round"/>
<path d="M2.84002 6.00038C3.17813 5.0449 3.75278 4.19064 4.51033 3.51732C5.26789 2.844 6.18366 2.37355 7.17221 2.14988C8.16076 1.92621 9.18986 1.9566 10.1635 2.23823C11.1371 2.51985 12.0235 3.04352 12.74 3.76038L15.8334 6.66704M1.16669 9.33371L4.26002 12.2404C4.97652 12.9572 5.86294 13.4809 6.83656 13.7625C7.81018 14.0441 8.83928 14.0745 9.82783 13.8509C10.8164 13.6272 11.7322 13.1568 12.4897 12.4834C13.2473 11.8101 13.8219 10.9559 14.16 10.0004" stroke="white" stroke-width="1.33333" stroke-linecap="round" stroke-linejoin="round"/>
</g>
<defs>
<clipPath id="clip0_691:522">
<rect width="16" height="16" fill="white" transform="translate(0.5)"/>
</clipPath>
</defs>
</svg>
