<svg width="16" height="16" viewBox="0 0 16 16" fill="none" xmlns="http://www.w3.org/2000/svg">
<path d="M8.46875 4.25C8.46875 1.90653 6.57622 0 4.25 0C1.91747 0 0 1.91809 0 4.25C0 6.41897 1.65756 8.21059 3.78125 8.44297V11.2812H2.375C2.11613 11.2812 1.90625 11.4911 1.90625 11.75C1.90625 12.0089 2.11613 12.2188 2.375 12.2188H3.78125V13.625C3.78125 13.8839 3.99113 14.0938 4.25 14.0938C4.50887 14.0938 4.71875 13.8839 4.71875 13.625V12.2188H6.125C6.38387 12.2188 6.59375 12.0089 6.59375 11.75C6.59375 11.4911 6.38387 11.2812 6.125 11.2812H4.71875V8.44256C6.82519 8.20862 8.46875 6.41778 8.46875 4.25ZM0.9375 4.25C0.9375 2.42347 2.4235 0.9375 4.25 0.9375C6.05928 0.9375 7.53125 2.42347 7.53125 4.25C7.53125 6.05928 6.05928 7.53125 4.25 7.53125C2.4235 7.53125 0.9375 6.05928 0.9375 4.25Z" fill="#15222C"/>
<path d="M12.2188 7.55705V3.50667L13.2936 4.58145C13.4766 4.76452 13.7734 4.76455 13.9565 4.58145C14.1395 4.39839 14.1395 4.10161 13.9565 3.91855L12.0815 2.04355C11.8984 1.86048 11.6016 1.86048 11.4186 2.04355L9.54356 3.91855C9.3605 4.10161 9.3605 4.39839 9.54356 4.58145C9.72659 4.76452 10.0234 4.76452 10.2065 4.58145L11.2812 3.50667V7.55745C9.17481 7.79139 7.53125 9.58223 7.53125 11.75C7.53125 14.0935 9.42378 16 11.75 16C14.0825 16 16 14.0819 16 11.75C16 9.58105 14.3424 7.78942 12.2188 7.55705ZM11.75 15.0625C9.94072 15.0625 8.46875 13.5765 8.46875 11.75C8.46875 9.94073 9.94072 8.46877 11.75 8.46877C13.5765 8.46877 15.0625 9.94073 15.0625 11.75C15.0625 13.5765 13.5765 15.0625 11.75 15.0625Z" fill="#15222C"/>
</svg>
