<svg width="14" height="14" viewBox="0 0 14 14" fill="none" xmlns="http://www.w3.org/2000/svg">
<path d="M7 0C3.15 0 0 3.15 0 7C0 10.85 3.15 14 7 14C10.85 14 14 10.85 14 7C14 3.15 10.85 0 7 0ZM9.45 4.2C10.01 4.2 10.5 4.69 10.5 5.25C10.5 5.81 10.01 6.3 9.45 6.3C8.89 6.3 8.4 5.81 8.4 5.25C8.4 4.69 8.89 4.2 9.45 4.2ZM4.55 4.2C5.11 4.2 5.6 4.69 5.6 5.25C5.6 5.81 5.11 6.3 4.55 6.3C3.99 6.3 3.5 5.81 3.5 5.25C3.5 4.69 3.99 4.2 4.55 4.2ZM7 11.2C5.18 11.2 3.64 10.01 3.08 8.4H10.92C10.36 10.01 8.82 11.2 7 11.2Z" fill="#BEBEBE"/>
</svg>
