<svg width="20" height="20" viewBox="0 0 20 20" fill="none" xmlns="http://www.w3.org/2000/svg">
<path d="M12.9817 6.66811L12.8684 6.42662L10.1125 0.556656L12.9817 6.66811ZM12.9817 6.66811L13.2455 6.7084M12.9817 6.66811L13.2455 6.7084M13.2455 6.7084L19.3933 7.64749C19.3934 7.6475 19.3934 7.6475 19.3934 7.64751C19.493 7.66289 19.5359 7.78523 19.4638 7.85925C19.4638 7.85926 19.4638 7.85928 19.4638 7.85929L14.9972 12.4375L14.821 12.6181L14.8616 12.8671L15.9175 19.3396L15.9175 19.3399C15.9227 19.3717 15.9177 19.3933 15.9105 19.4094C15.9023 19.4276 15.8876 19.4462 15.8663 19.461C15.8235 19.4908 15.7771 19.4932 15.7346 19.4696L15.7337 19.469L10.242 16.4332L10.0002 16.2995L9.75827 16.4332L4.26661 19.4682L4.2655 19.4688C4.17729 19.5178 4.06599 19.4413 4.08272 19.3391L4.08277 19.3388L5.1386 12.8663L5.17923 12.6173L5.00302 12.4366L0.536349 7.8583L0.536098 7.85805C0.464678 7.78495 0.506421 7.66307 0.606607 7.64754C0.606672 7.64753 0.606737 7.64752 0.606802 7.64751L6.75479 6.7084L7.01855 6.66811M13.2455 6.7084L7.01855 6.66811M7.01855 6.66811L7.13192 6.42657M7.01855 6.66811L7.13192 6.42657M7.13192 6.42657L9.88688 0.556656C9.88688 0.556639 9.88691 0.556583 9.88692 0.556565M7.13192 6.42657L9.88692 0.556565M9.88692 0.556565C9.88895 0.552263 9.89318 0.54484 9.90991 0.535638C9.92927 0.524985 9.96076 0.515381 9.99971 0.515381C10.0387 0.515381 10.0702 0.524985 10.0895 0.535638C10.1063 0.544851 10.1105 0.552318 10.1125 0.556618L9.88692 0.556565Z" stroke="#FEB019"/>
</svg>
