<svg width="14" height="14" viewBox="0 0 14 14" fill="none" xmlns="http://www.w3.org/2000/svg">
<g clip-path="url(#clip0)">
<path d="M10.7915 11.6665C10.7559 11.6665 10.7209 11.66 10.6865 11.6472L3.10317 8.73055C2.99059 8.68738 2.9165 8.57888 2.9165 8.45813V4.95813C2.9165 4.83738 2.99059 4.72888 3.10317 4.68571L10.6865 1.76905C10.7769 1.73405 10.8767 1.74688 10.9566 1.80113C11.0359 1.85538 11.0832 1.94521 11.0832 2.04146V11.3748C11.0832 11.471 11.0359 11.5609 10.9566 11.6151C10.907 11.649 10.8498 11.6665 10.7915 11.6665ZM3.49984 8.25746L10.4998 10.9501V2.46613L3.49984 5.1588V8.25746Z" fill="#1E88E5"/>
<path d="M3.20833 8.74984H1.16667C0.52325 8.74984 0 8.22659 0 7.58317V5.83317C0 5.18975 0.52325 4.6665 1.16667 4.6665H3.20833C3.36933 4.6665 3.5 4.79717 3.5 4.95817V8.45817C3.5 8.61917 3.36933 8.74984 3.20833 8.74984ZM1.16667 5.24984C0.844667 5.24984 0.583333 5.51117 0.583333 5.83317V7.58317C0.583333 7.90517 0.844667 8.1665 1.16667 8.1665H2.91667V5.24984H1.16667Z" fill="#1E88E5"/>
<path d="M4.37504 12.8336H2.62504C2.47979 12.8336 2.35671 12.7268 2.33629 12.5827L1.75296 8.49941C1.73021 8.34016 1.84104 8.19258 2.00088 8.16983C2.15721 8.14999 2.30771 8.25791 2.33046 8.41774L2.87821 12.2502H4.04838L3.65871 8.77708C3.64121 8.61724 3.75613 8.47316 3.91596 8.45449C4.07054 8.43758 4.21988 8.55191 4.23854 8.71174L4.66438 12.5092C4.67371 12.5921 4.64746 12.6743 4.59204 12.7362C4.53721 12.798 4.45846 12.8336 4.37504 12.8336Z" fill="#1E88E5"/>
<path d="M11.9581 5.24984C11.8642 5.24984 11.772 5.20434 11.7155 5.11976C11.6262 4.98618 11.6624 4.80476 11.7965 4.71551L13.5465 3.54884C13.6795 3.46018 13.861 3.49518 13.9508 3.62993C14.04 3.76351 14.0039 3.94493 13.8697 4.03418L12.1197 5.20084C12.0701 5.23409 12.0141 5.24984 11.9581 5.24984Z" fill="#1E88E5"/>
<path d="M13.7085 10.5002C13.6525 10.5002 13.5965 10.4844 13.5469 10.4512L11.7969 9.28451C11.6633 9.19526 11.6265 9.01385 11.7158 8.88026C11.8056 8.7461 11.9876 8.71051 12.12 8.79918L13.87 9.96585C14.0036 10.0551 14.0404 10.2365 13.9511 10.3701C13.8945 10.4547 13.8024 10.5002 13.7085 10.5002Z" fill="#1E88E5"/>
<path d="M13.7082 7.29184H11.9582C11.7972 7.29184 11.6665 7.16117 11.6665 7.00017C11.6665 6.83917 11.7972 6.7085 11.9582 6.7085H13.7082C13.8692 6.7085 13.9999 6.83917 13.9999 7.00017C13.9999 7.16117 13.8692 7.29184 13.7082 7.29184Z" fill="#1E88E5"/>
</g>
<defs>
<clipPath id="clip0">
<rect width="14" height="14" fill="white"/>
</clipPath>
</defs>
</svg>
