<svg width="14" height="14" viewBox="0 0 14 14" fill="none" xmlns="http://www.w3.org/2000/svg">
<g clip-path="url(#clip0)">
<path d="M0.875 12.687V1.31202C0.875 1.07038 1.07086 0.874519 1.3125 0.874519H7.875V2.62452C7.875 3.10776 8.26675 3.49952 8.75 3.49952H10.5V4.81202H11.375V3.06202C11.3757 2.94573 11.33 2.83394 11.2481 2.75139L8.62313 0.126394C8.54057 0.0444992 8.42879 -0.00113755 8.3125 -0.0004813H1.3125C0.587617 -0.0004813 0 0.587163 0 1.31202V12.687C0 13.4119 0.587617 13.9995 1.3125 13.9995H4.375V13.1245H1.3125C1.07089 13.1245 0.875 12.9287 0.875 12.687Z" fill="#1E88E5"/>
<path d="M13.125 8.75H12.25V9.625H13.125V10.5H11.375V7.875H14C14 7.39175 13.6082 7 13.125 7H11.375C10.8918 7 10.5 7.39175 10.5 7.875V10.5C10.5 10.9832 10.8918 11.375 11.375 11.375H13.125C13.6082 11.375 14 10.9832 14 10.5V9.625C14 9.14176 13.6082 8.75 13.125 8.75Z" fill="#1E88E5"/>
<path d="M8.3125 7C7.34601 7 6.5625 7.78351 6.5625 8.75V9.625C6.5625 10.5915 7.34601 11.375 8.3125 11.375C9.27899 11.375 10.0625 10.5915 10.0625 9.625V8.75C10.0625 7.78351 9.27899 7 8.3125 7ZM9.1875 9.625C9.1875 10.1082 8.79575 10.5 8.3125 10.5C7.82925 10.5 7.4375 10.1082 7.4375 9.625V8.75C7.4375 8.26676 7.82925 7.875 8.3125 7.875C8.79575 7.875 9.1875 8.26676 9.1875 8.75V9.625Z" fill="#1E88E5"/>
<path d="M4.375 7H3.5V10.9375C3.5 11.1791 3.69586 11.375 3.9375 11.375H6.125V10.5H4.375V7Z" fill="#1E88E5"/>
</g>
<defs>
<clipPath id="clip0">
<rect width="14" height="14" fill="white"/>
</clipPath>
</defs>
</svg>
