<svg width="14" height="14" viewBox="0 0 14 14" fill="none" xmlns="http://www.w3.org/2000/svg">
<path d="M11.5152 4.85911L8.34183 1.35911C8.28729 1.29868 8.22071 1.25033 8.14637 1.21718C8.07202 1.18403 7.99156 1.1668 7.91016 1.16661H3.82683C3.63302 1.1643 3.44065 1.20019 3.2607 1.27223C3.08076 1.34426 2.91677 1.45104 2.7781 1.58647C2.63943 1.72189 2.52879 1.8833 2.45251 2.06148C2.37622 2.23966 2.33578 2.43113 2.3335 2.62494V11.3749C2.33578 11.5688 2.37622 11.7602 2.45251 11.9384C2.52879 12.1166 2.63943 12.278 2.7781 12.4134C2.91677 12.5488 3.08076 12.6556 3.2607 12.7277C3.44065 12.7997 3.63302 12.8356 3.82683 12.8333H10.1735C10.3673 12.8356 10.5597 12.7997 10.7396 12.7277C10.9196 12.6556 11.0836 12.5488 11.2222 12.4134C11.3609 12.278 11.4715 12.1166 11.5478 11.9384C11.6241 11.7602 11.6645 11.5688 11.6668 11.3749V5.24994C11.6665 5.10537 11.6124 4.96609 11.5152 4.85911ZM10.296 5.24994H7.99766C7.8774 5.2381 7.76661 5.1795 7.68914 5.08675C7.61168 4.99401 7.57374 4.87455 7.5835 4.75411V2.33328H7.64766L10.296 5.24994ZM10.1735 11.6666H3.82683C3.78621 11.669 3.74553 11.6633 3.70711 11.6499C3.6687 11.6365 3.6333 11.6157 3.60295 11.5886C3.57261 11.5615 3.5479 11.5287 3.53027 11.492C3.51263 11.4553 3.5024 11.4156 3.50016 11.3749V2.62494C3.5024 2.58432 3.51263 2.54454 3.53027 2.50788C3.5479 2.47122 3.57261 2.4384 3.60295 2.4113C3.6333 2.3842 3.6687 2.36336 3.70711 2.34998C3.74553 2.33659 3.78621 2.33091 3.82683 2.33328H6.41683V4.75411C6.40741 5.1838 6.56835 5.59978 6.86452 5.91125C7.16069 6.22272 7.56804 6.40439 7.99766 6.41661H10.5002V11.3749C10.4979 11.4156 10.4877 11.4553 10.4701 11.492C10.4524 11.5287 10.4277 11.5615 10.3974 11.5886C10.367 11.6157 10.3316 11.6365 10.2932 11.6499C10.2548 11.6633 10.2141 11.669 10.1735 11.6666Z" fill="#1E88E5"/>
</svg>
