<svg width="17" height="15" viewBox="0 0 17 15" fill="none" xmlns="http://www.w3.org/2000/svg">
<path d="M16.5542 11.0085L14.1768 8.91518C13.3278 8.16758 11.8843 8.46665 11.5447 9.43851C11.29 10.1114 10.4409 10.4852 9.67676 10.3356C7.97862 9.96183 5.68613 8.01806 5.2616 6.44809C5.00688 5.77522 5.51632 5.02761 6.28048 4.80336C7.38427 4.50432 7.7239 3.23339 6.87483 2.48578L4.49744 0.392492C3.81818 -0.130831 2.7993 -0.130831 2.20495 0.392492L0.591722 1.81294C-1.02151 3.30815 0.761536 7.27045 4.75216 10.7842C8.74278 14.2979 13.2428 15.9427 14.941 14.4475L16.5542 13.027C17.1486 12.4289 17.1486 11.5318 16.5542 11.0085Z" fill="#C8C8CB"/>
</svg>
