<svg width="14" height="14" viewBox="0 0 14 14" fill="none" xmlns="http://www.w3.org/2000/svg">
<path d="M12.0285 2.46151C11.9607 2.40669 11.8815 2.36776 11.7968 2.34757C11.712 2.32738 11.6237 2.32645 11.5385 2.34485L7.00018 3.36568L2.46184 2.33318C2.37529 2.31363 2.28542 2.31409 2.19907 2.33451C2.11272 2.35493 2.03217 2.39479 1.96354 2.45104C1.89492 2.50729 1.84003 2.57845 1.80306 2.65911C1.76608 2.73977 1.748 2.82781 1.75018 2.91651V10.0332C1.74688 10.168 1.79042 10.2998 1.87338 10.4062C1.95633 10.5126 2.07359 10.5869 2.20518 10.6165L6.87184 11.6665H7.12851L11.7952 10.6165C11.9268 10.5869 12.044 10.5126 12.127 10.4062C12.2099 10.2998 12.2535 10.168 12.2502 10.0332V2.91651C12.2498 2.82889 12.2296 2.74249 12.1913 2.66372C12.1529 2.58495 12.0973 2.51584 12.0285 2.46151ZM2.91684 3.64568L6.41684 4.43318V10.354L2.91684 9.56651V3.64568ZM11.0835 9.56651L7.58351 10.354V4.43318L11.0835 3.64568V9.56651Z" fill="#1E88E5"/>
</svg>
