<svg width="14" height="14" viewBox="0 0 14 14" fill="none" xmlns="http://www.w3.org/2000/svg">
<path d="M7 0.583496C6.53587 0.583496 6.09075 0.767871 5.76256 1.09606C5.43437 1.42425 5.25 1.86937 5.25 2.3335V7.00016C5.25 7.46429 5.43437 7.90941 5.76256 8.2376C6.09075 8.56579 6.53587 8.75016 7 8.75016C7.46413 8.75016 7.90925 8.56579 8.23744 8.2376C8.56563 7.90941 8.75 7.46429 8.75 7.00016V2.3335C8.75 1.86937 8.56563 1.42425 8.23744 1.09606C7.90925 0.767871 7.46413 0.583496 7 0.583496V0.583496Z" stroke="#1E88E5" stroke-linecap="round" stroke-linejoin="round"/>
<path d="M11.0832 5.8335V7.00016C11.0832 8.08313 10.653 9.12174 9.88719 9.88752C9.12142 10.6533 8.08281 11.0835 6.99984 11.0835C5.91687 11.0835 4.87826 10.6533 4.11248 9.88752C3.34671 9.12174 2.9165 8.08313 2.9165 7.00016V5.8335" stroke="#1E88E5" stroke-linecap="round" stroke-linejoin="round"/>
<path d="M7 11.0835V13.4168" stroke="#1E88E5" stroke-linecap="round" stroke-linejoin="round"/>
<path d="M4.6665 13.4165H9.33317" stroke="#1E88E5" stroke-linecap="round" stroke-linejoin="round"/>
</svg>
