<svg width="14" height="14" viewBox="0 0 14 14" fill="none" xmlns="http://www.w3.org/2000/svg">
<path d="M8.16683 1.1665H3.50016C3.19074 1.1665 2.894 1.28942 2.6752 1.50821C2.45641 1.72701 2.3335 2.02375 2.3335 2.33317V11.6665C2.3335 11.9759 2.45641 12.2727 2.6752 12.4915C2.894 12.7103 3.19074 12.8332 3.50016 12.8332H10.5002C10.8096 12.8332 11.1063 12.7103 11.3251 12.4915C11.5439 12.2727 11.6668 11.9759 11.6668 11.6665V4.6665L8.16683 1.1665Z" stroke="#1E88E5" stroke-linecap="round" stroke-linejoin="round"/>
<path d="M8.1665 1.1665V4.6665H11.6665" stroke="#1E88E5" stroke-linecap="round" stroke-linejoin="round"/>
<path d="M9.33317 7.5835H4.6665" stroke="#1E88E5" stroke-linecap="round" stroke-linejoin="round"/>
<path d="M9.33317 9.9165H4.6665" stroke="#1E88E5" stroke-linecap="round" stroke-linejoin="round"/>
<path d="M5.83317 5.25H5.24984H4.6665" stroke="#1E88E5" stroke-linecap="round" stroke-linejoin="round"/>
</svg>
