<svg width="15" height="15" viewBox="0 0 15 15" fill="none" xmlns="http://www.w3.org/2000/svg">
<circle cx="7.5" cy="7.5" r="7.5" fill="#1E88E5"/>
<g clip-path="url(#clip0)">
<path d="M6.33012 10.8409L9.51381 7.65697C9.55935 7.61148 9.58215 7.55915 9.58215 7.49995C9.58215 7.44075 9.55935 7.38832 9.51381 7.3428L6.33012 4.15916C6.28451 4.11355 6.23218 4.09082 6.17296 4.09082C6.11375 4.09082 6.06135 4.11363 6.01583 4.15916L5.67434 4.50068C5.6288 4.54622 5.60604 4.59863 5.60604 4.65783C5.60604 4.71703 5.6288 4.76943 5.67434 4.81497L8.35926 7.49995L5.67417 10.185C5.62863 10.2305 5.60602 10.283 5.60602 10.3421C5.60602 10.4014 5.62878 10.4538 5.67417 10.4993L6.01581 10.8409C6.06132 10.8864 6.11375 10.909 6.17293 10.909C6.23218 10.909 6.28459 10.8864 6.33012 10.8409Z" fill="white"/>
</g>
<defs>
<clipPath id="clip0">
<rect width="6.81818" height="6.81818" fill="white" transform="translate(10.9091 4.09082) rotate(90)"/>
</clipPath>
</defs>
</svg>
