<svg width="30" height="30" viewBox="0 0 30 30" fill="none" xmlns="http://www.w3.org/2000/svg">
<circle cx="15" cy="15" r="15" fill="#1C323F"/>
<path d="M22.3337 8.99999C21.6952 9.45031 20.9884 9.79473 20.2403 10.02C19.8388 9.55833 19.3052 9.23112 18.7117 9.08261C18.1181 8.9341 17.4933 8.97145 16.9217 9.18963C16.3501 9.4078 15.8593 9.79626 15.5156 10.3025C15.172 10.8087 14.9921 11.4082 15.0003 12.02V12.6867C13.8287 12.717 12.6678 12.4572 11.621 11.9303C10.5742 11.4034 9.67387 10.6257 9.00033 9.66666C9.00033 9.66666 6.33366 15.6667 12.3337 18.3333C10.9607 19.2653 9.3251 19.7326 7.66699 19.6667C13.667 23 21.0003 19.6667 21.0003 12C20.9997 11.8143 20.9819 11.6291 20.947 11.4467C21.6274 10.7757 22.1075 9.92847 22.3337 8.99999V8.99999Z" stroke="white" stroke-width="1.33333" stroke-linecap="round" stroke-linejoin="round"/>
</svg>
