<svg width="13" height="12" viewBox="0 0 13 12" fill="none" xmlns="http://www.w3.org/2000/svg">
<g clip-path="url(#clip0_1807_1293)">
<path d="M8.5 8L6.5 6L4.5 8" stroke="#3E4457" stroke-linecap="round" stroke-linejoin="round"/>
<path d="M6.5 6V10.5" stroke="#3E4457" stroke-linecap="round" stroke-linejoin="round"/>
<path d="M10.6952 9.19475C11.1829 8.92888 11.5681 8.50819 11.7902 7.99906C12.0122 7.48993 12.0583 6.92136 11.9213 6.38309C11.7843 5.84482 11.472 5.3675 11.0336 5.02647C10.5952 4.68544 10.0557 4.50011 9.50022 4.49975H8.87022C8.71888 3.91437 8.4368 3.37092 8.0452 2.91024C7.65359 2.44957 7.16265 2.08367 6.60927 1.84005C6.0559 1.59643 5.4545 1.48143 4.85028 1.50369C4.24607 1.52595 3.65476 1.6849 3.12081 1.96858C2.58687 2.25226 2.12418 2.6533 1.76754 3.14154C1.41089 3.62978 1.16957 4.19252 1.06171 4.78745C0.953859 5.38237 0.982277 5.99401 1.14483 6.57638C1.30738 7.15874 1.59985 7.69668 2.00022 8.14975" stroke="#3E4457" stroke-linecap="round" stroke-linejoin="round"/>
<path d="M8.5 8L6.5 6L4.5 8" stroke="#3E4457" stroke-linecap="round" stroke-linejoin="round"/>
</g>
<defs>
<clipPath id="clip0_1807_1293">
<rect width="12" height="12" fill="white" transform="translate(0.5)"/>
</clipPath>
</defs>
</svg>
