<svg width="14" height="14" viewBox="0 0 14 14" fill="none" xmlns="http://www.w3.org/2000/svg">
<path d="M13.817 5.09876C13.574 4.87156 13.181 4.87257 12.9393 5.10097L5.47818 12.1513C4.5102 13.0611 2.93805 13.0611 1.96826 12.1501C0.999202 11.2388 0.999202 9.76121 1.96838 8.85032L9.65031 1.59242C10.2547 1.02446 11.2372 1.02446 11.8433 1.59365C12.4492 2.16313 12.4492 3.08646 11.8431 3.6561L5.47935 9.63712C5.47894 9.63751 5.47859 9.63794 5.47818 9.63833C5.23574 9.86493 4.84394 9.86463 4.60199 9.63723C4.35964 9.40946 4.35964 9.04028 4.60199 8.8125L7.67373 5.92489C7.91608 5.69705 7.91605 5.32769 7.67364 5.09991C7.43123 4.87213 7.03823 4.87216 6.79588 5.09999L3.72417 7.98755C2.99708 8.67091 2.99708 9.7788 3.72423 10.4622C4.45134 11.1456 5.63011 11.1456 6.35726 10.4622C6.3581 10.4614 6.35877 10.4605 6.35958 10.4598L12.7209 4.48102C13.8117 3.45578 13.8117 1.79373 12.7209 0.768485C11.6299 -0.256162 9.86159 -0.256162 8.77138 0.768485L1.08945 8.02643C-0.363325 9.39185 -0.363325 11.608 1.0905 12.975C2.54528 14.3416 4.90323 14.3416 6.35714 12.9752L13.8194 5.92374C14.0611 5.6953 14.0601 5.32596 13.817 5.09876Z" fill="#BEBEBE"/>
</svg>
