<svg width="20" height="20" viewBox="0 0 20 20" fill="none" xmlns="http://www.w3.org/2000/svg">
<rect width="20" height="20" rx="4" fill="#6F56ED"/>
<g clip-path="url(#clip0)">
<path d="M15.5775 10.9466C15.9355 7.93314 15.4055 6.03064 14.4495 5.17013L14.45 5.16963C12.907 3.70013 7.69604 3.48263 5.85004 5.23563C5.02104 6.09314 4.72904 7.35164 4.69704 8.90964C4.66504 10.4681 4.62704 13.3876 7.34754 14.1796H7.35004L7.34754 15.3891C7.34754 15.3891 7.32904 15.8791 7.64204 15.9776C8.00004 16.0936 8.16204 15.8661 9.27554 14.5361C11.1375 14.6976 12.5675 14.3276 12.73 14.2736C13.106 14.1476 15.2335 13.8661 15.5775 10.9466Z" fill="white"/>
<path d="M10.1109 6.14905C9.91843 6.14905 9.91843 6.44905 10.1109 6.45155C11.6044 6.46305 12.8344 7.50405 12.8479 9.41355C12.8479 9.61505 13.1429 9.61255 13.1404 9.41105H13.1399C13.1239 7.35355 11.7809 6.16055 10.1109 6.14905Z" fill="#6F56ED"/>
<path d="M12.0755 9.09648C12.071 9.29549 12.3655 9.30499 12.368 9.10348C12.3925 7.96894 11.693 7.0344 10.3785 6.9359C10.186 6.9219 10.166 7.22441 10.358 7.23841C11.498 7.32491 12.0985 8.10294 12.0755 9.09648Z" fill="#6F56ED"/>
<path d="M11.7606 10.3866C11.5136 10.2436 11.2621 10.3326 11.1581 10.4731L10.9406 10.7546C10.8301 10.8976 10.6236 10.8786 10.6236 10.8786C9.1166 10.4801 8.7136 8.90306 8.7136 8.90306C8.7136 8.90306 8.6951 8.68956 8.8331 8.57506L9.1051 8.35006C9.2411 8.24206 9.3271 7.98206 9.1886 7.72656C8.8186 7.05806 8.5701 6.82756 8.4436 6.65056C8.3106 6.48406 8.1106 6.44656 7.9026 6.55906H7.8981C7.46561 6.81206 6.99211 7.28556 7.14361 7.77306C7.40211 8.28706 7.8771 9.92556 9.3911 11.1636C10.1026 11.7491 11.2286 12.3491 11.7066 12.4876L11.7111 12.4946C12.1821 12.6516 12.6401 12.1596 12.8846 11.7141V11.7106C12.9931 11.4951 12.9571 11.2911 12.7986 11.1576C12.5176 10.8836 12.0936 10.5811 11.7606 10.3866Z" fill="#6F56ED"/>
<path d="M10.5844 8.05209C11.0649 8.08009 11.2979 8.33109 11.3229 8.84659C11.3319 9.04809 11.6244 9.03409 11.6154 8.83259C11.5834 8.15959 11.2324 7.78459 10.6004 7.74959C10.4079 7.73809 10.3899 8.04059 10.5844 8.05209Z" fill="#6F56ED"/>
</g>
<defs>
<clipPath id="clip0">
<rect width="12" height="12" fill="white" transform="translate(4 4)"/>
</clipPath>
</defs>
</svg>
